<svg width="295" height="212" viewBox="0 0 295 212" fill="none" xmlns="http://www.w3.org/2000/svg">
<path d="M161.517 7.089L92.1403 21.9246L112.708 117.458L182.084 102.622L161.517 7.089Z" fill="#E0E0E0"/>
<g opacity="0.5">
<path opacity="0.5" d="M160.693 8.95479L93.6612 23.289L113.533 115.593L180.565 101.259L160.693 8.95479Z" fill="url(#paint0_linear)"/>
</g>
<path d="M159.985 9.81667L94.6599 23.7859L114.093 114.051L179.418 100.081L159.985 9.81667Z" fill="#FAFAFA"/>
<path d="M142.769 9.40467L110.362 16.3347L112.046 24.1584L144.454 17.2284L142.769 9.40467Z" fill="url(#paint1_linear)"/>
<path d="M124.919 5.22815C122.417 5.76376 120.834 8.26705 121.385 10.8189C121.935 13.3707 124.408 15.0083 126.905 14.4727C129.402 13.9371 130.99 11.4338 130.44 8.88195C129.889 6.33011 127.421 4.69254 124.919 5.22815ZM126.49 12.526C125.961 12.6517 125.406 12.6177 124.897 12.4282C124.388 12.2387 123.947 11.9023 123.63 11.4621C123.313 11.0218 123.135 10.4974 123.118 9.95589C123.102 9.41436 123.247 8.88014 123.536 8.42132C123.825 7.9625 124.245 7.59986 124.742 7.37962C125.238 7.15938 125.79 7.09151 126.325 7.18466C126.861 7.27781 127.356 7.52776 127.749 7.90266C128.141 8.27756 128.413 8.76043 128.529 9.28972C128.609 9.63572 128.62 9.99409 128.561 10.3443C128.501 10.6944 128.373 11.0295 128.184 11.3302C127.994 11.6309 127.747 11.8914 127.456 12.0966C127.166 12.3018 126.837 12.4478 126.49 12.526Z" fill="url(#paint2_linear)"/>
<path d="M142.356 9.14207L110.631 15.9261L112.241 23.4049L143.966 16.6209L142.356 9.14207Z" fill="#2D5DB9"/>
<path d="M124.92 5.22857C124.043 5.41615 123.241 5.85866 122.617 6.50016C121.992 7.14166 121.572 7.95333 121.411 8.83253C121.249 9.71174 121.353 10.619 121.708 11.4396C122.064 12.2601 122.656 12.9572 123.409 13.4426C124.162 13.928 125.042 14.1799 125.939 14.1665C126.836 14.153 127.709 13.8749 128.447 13.3672C129.185 12.8595 129.755 12.1451 130.086 11.3143C130.417 10.4834 130.493 9.57349 130.305 8.69952C130.18 8.11916 129.942 7.56902 129.604 7.08049C129.265 6.59197 128.834 6.17463 128.334 5.85232C127.834 5.53001 127.275 5.30903 126.689 5.20201C126.103 5.09498 125.502 5.10401 124.92 5.22857ZM126.42 12.2028C125.914 12.3111 125.387 12.2673 124.905 12.077C124.424 11.8868 124.01 11.5585 123.716 11.1339C123.422 10.7093 123.261 10.2073 123.254 9.69139C123.246 9.17552 123.392 8.66894 123.673 8.23574C123.954 7.80253 124.358 7.46214 124.833 7.25763C125.308 7.05312 125.834 6.99366 126.343 7.08678C126.852 7.1799 127.322 7.42141 127.694 7.78077C128.065 8.14014 128.321 8.60121 128.43 9.10568C128.575 9.78203 128.445 10.4883 128.068 11.0691C127.691 11.6499 127.098 12.0577 126.42 12.2028Z" fill="#2D5DB9"/>
<path d="M193.745 18.9179H122.789V116.626H193.745V18.9179Z" fill="#E0E0E0"/>
<g opacity="0.5">
<path opacity="0.5" d="M192.546 20.5701H123.989V114.975H192.546V20.5701Z" fill="url(#paint3_linear)"/>
</g>
<path d="M191.673 21.2658H124.861V113.585H191.673V21.2658Z" fill="white"/>
<path d="M174.927 17.2627H141.783V25.2645H174.927V17.2627Z" fill="url(#paint4_linear)"/>
<path d="M158.355 9.45197C155.796 9.45197 153.721 11.5685 153.721 14.1802C153.721 16.7919 155.796 18.9085 158.355 18.9085C160.913 18.9085 162.988 16.7919 162.988 14.1802C162.988 11.5685 160.913 9.45197 158.355 9.45197ZM158.355 16.9084C157.811 16.9213 157.275 16.7723 156.816 16.4804C156.358 16.1886 155.997 15.7671 155.78 15.2699C155.563 14.7727 155.499 14.2222 155.597 13.6888C155.695 13.1553 155.951 12.6632 156.331 12.2752C156.711 11.8871 157.199 11.6208 157.731 11.5101C158.264 11.3995 158.818 11.4496 159.322 11.6541C159.826 11.8585 160.257 12.2081 160.561 12.658C160.865 13.1079 161.027 13.6379 161.027 14.1802C161.032 14.893 160.754 15.5788 160.253 16.0877C159.752 16.5965 159.07 16.887 158.355 16.8955V16.9084Z" fill="url(#paint5_linear)"/>
<path d="M174.578 16.9194H142.132V24.5685H174.578V16.9194Z" fill="#2D5DB9"/>
<path d="M158.355 9.45197C157.458 9.45197 156.581 9.71703 155.835 10.2136C155.09 10.7103 154.508 11.4161 154.165 12.2419C153.822 13.0678 153.732 13.9765 153.907 14.8532C154.082 15.7299 154.514 16.5352 155.148 17.1673C155.782 17.7993 156.59 18.2298 157.47 18.4042C158.35 18.5785 159.262 18.489 160.09 18.147C160.919 17.8049 161.627 17.2256 162.125 16.4824C162.624 15.7392 162.89 14.8654 162.89 13.9715C162.89 12.7728 162.412 11.6233 161.561 10.7757C160.711 9.92813 159.557 9.45197 158.355 9.45197ZM158.355 16.58C157.838 16.5793 157.332 16.4259 156.902 16.1392C156.472 15.8525 156.137 15.4453 155.94 14.969C155.742 14.4926 155.69 13.9686 155.791 13.463C155.892 12.9574 156.141 12.4929 156.506 12.1282C156.872 11.7634 157.337 11.5148 157.845 11.4137C158.352 11.3126 158.878 11.3635 159.356 11.56C159.834 11.7566 160.243 12.0899 160.531 12.5179C160.819 12.946 160.974 13.4495 160.975 13.965C160.975 14.3077 160.907 14.647 160.775 14.9635C160.643 15.28 160.45 15.5675 160.207 15.8096C159.964 16.0517 159.675 16.2436 159.357 16.3744C159.039 16.5052 158.699 16.5723 158.355 16.5719V16.58Z" fill="#2D5DB9"/>
<g opacity="0.5">
<path opacity="0.5" d="M84.0076 119.266H83.3971V122.718H84.0076V119.266Z" fill="#47E6B1"/>
<path opacity="0.5" d="M85.4348 121.297V120.689H81.9716V121.297H85.4348Z" fill="#47E6B1"/>
</g>
<g opacity="0.5">
<path opacity="0.5" d="M154.833 0H154.223V3.45153H154.833V0Z" fill="#47E6B1"/>
<path opacity="0.5" d="M156.26 2.02913V1.42072L152.797 1.42072V2.02913H156.26Z" fill="#47E6B1"/>
</g>
<path opacity="0.5" d="M206.112 125.012C205.943 124.939 205.808 124.807 205.731 124.641C205.654 124.475 205.641 124.286 205.695 124.111C205.703 124.084 205.709 124.057 205.711 124.029C205.716 123.949 205.694 123.869 205.65 123.802C205.606 123.735 205.542 123.683 205.466 123.655C205.391 123.628 205.308 123.625 205.231 123.648C205.153 123.67 205.086 123.717 205.037 123.781C205.02 123.804 205.006 123.828 204.995 123.854C204.921 124.022 204.789 124.157 204.622 124.234C204.455 124.31 204.266 124.323 204.09 124.27C204.064 124.261 204.036 124.256 204.008 124.254C203.927 124.249 203.847 124.27 203.78 124.314C203.712 124.358 203.661 124.422 203.633 124.497C203.605 124.573 203.602 124.655 203.625 124.732C203.648 124.809 203.695 124.877 203.759 124.925C203.782 124.942 203.806 124.956 203.832 124.967C204.001 125.04 204.136 125.172 204.213 125.339C204.29 125.505 204.303 125.693 204.25 125.868C204.241 125.895 204.235 125.923 204.233 125.951C204.228 126.031 204.25 126.111 204.294 126.178C204.338 126.245 204.402 126.296 204.478 126.324C204.554 126.352 204.636 126.355 204.713 126.332C204.791 126.31 204.859 126.263 204.907 126.199C204.924 126.176 204.938 126.152 204.949 126.126C205.023 125.958 205.155 125.823 205.322 125.746C205.489 125.669 205.678 125.657 205.854 125.71C205.881 125.719 205.908 125.724 205.936 125.726C206.017 125.731 206.097 125.71 206.164 125.666C206.232 125.622 206.283 125.558 206.311 125.482C206.339 125.407 206.342 125.325 206.319 125.248C206.296 125.171 206.249 125.103 206.185 125.055C206.162 125.038 206.138 125.024 206.112 125.012Z" fill="#4D8AF0"/>
<path opacity="0.5" d="M103.108 91.8303C102.939 91.7573 102.804 91.6251 102.727 91.4589C102.65 91.2927 102.637 91.1041 102.691 90.929C102.699 90.9022 102.705 90.8745 102.707 90.8465C102.712 90.7663 102.69 90.6868 102.646 90.6196C102.602 90.5523 102.538 90.501 102.462 90.4733C102.387 90.4455 102.304 90.4427 102.227 90.4653C102.149 90.488 102.081 90.5348 102.033 90.5989C102.016 90.6214 102.002 90.6459 101.991 90.6717C101.917 90.8395 101.785 90.9746 101.618 91.0513C101.451 91.128 101.262 91.1409 101.086 91.0876C101.06 91.079 101.032 91.0735 101.004 91.0714C100.923 91.0666 100.843 91.0877 100.776 91.1316C100.708 91.1755 100.657 91.2399 100.629 91.3152C100.601 91.3905 100.598 91.4728 100.621 91.5499C100.644 91.6269 100.691 91.6946 100.755 91.7429C100.778 91.7598 100.802 91.7739 100.828 91.785C100.997 91.8581 101.132 91.9903 101.209 92.1565C101.286 92.3227 101.299 92.5112 101.246 92.6863C101.237 92.7131 101.231 92.7408 101.229 92.7689C101.224 92.849 101.246 92.9286 101.29 92.9958C101.334 93.063 101.398 93.1143 101.474 93.1421C101.55 93.1698 101.632 93.1726 101.709 93.15C101.787 93.1274 101.855 93.0805 101.903 93.0164C101.92 92.9939 101.934 92.9695 101.945 92.9436C102.019 92.7758 102.151 92.6407 102.318 92.564C102.485 92.4873 102.674 92.4744 102.85 92.5278C102.877 92.5364 102.904 92.5418 102.932 92.5439C103.013 92.5488 103.093 92.5277 103.16 92.4837C103.228 92.4398 103.279 92.3754 103.307 92.3001C103.335 92.2248 103.338 92.1425 103.315 92.0655C103.292 91.9884 103.245 91.9207 103.181 91.8724C103.158 91.8556 103.134 91.8414 103.108 91.8303Z" fill="#FDD835"/>
<path opacity="0.5" d="M188.901 11.0324C188.733 10.9593 188.598 10.8271 188.521 10.6609C188.444 10.4948 188.431 10.3062 188.484 10.1311C188.493 10.1043 188.498 10.0766 188.5 10.0486C188.505 9.96842 188.484 9.88885 188.44 9.82163C188.396 9.75442 188.331 9.70313 188.256 9.67536C188.18 9.64759 188.098 9.64481 188.02 9.66743C187.943 9.69006 187.875 9.73688 187.827 9.80098C187.81 9.82352 187.796 9.84796 187.784 9.8738C187.711 10.0416 187.578 10.1767 187.412 10.2534C187.245 10.3301 187.056 10.343 186.88 10.2897C186.853 10.2811 186.825 10.2756 186.797 10.2735C186.717 10.2687 186.637 10.2898 186.57 10.3337C186.502 10.3776 186.451 10.442 186.423 10.5173C186.395 10.5926 186.392 10.6749 186.415 10.7519C186.438 10.829 186.485 10.8967 186.549 10.945C186.571 10.9618 186.596 10.976 186.622 10.9871C186.79 11.0601 186.926 11.1923 187.003 11.3585C187.08 11.5247 187.093 11.7133 187.039 11.8884C187.031 11.9152 187.025 11.9429 187.023 11.9709C187.018 12.0511 187.039 12.1306 187.083 12.1979C187.127 12.2651 187.192 12.3164 187.268 12.3441C187.343 12.3719 187.426 12.3747 187.503 12.3521C187.58 12.3294 187.648 12.2826 187.697 12.2185C187.714 12.196 187.728 12.1715 187.739 12.1457C187.812 11.9779 187.945 11.8428 188.112 11.7661C188.278 11.6894 188.468 11.6765 188.643 11.7298C188.67 11.7384 188.698 11.7439 188.726 11.746C188.807 11.7508 188.886 11.7297 188.954 11.6858C189.021 11.6419 189.073 11.5775 189.101 11.5022C189.128 11.4269 189.131 11.3446 189.109 11.2676C189.086 11.1905 189.039 11.1228 188.975 11.0745C188.952 11.0576 188.927 11.0435 188.901 11.0324Z" fill="#FDD835"/>
<path opacity="0.5" d="M212.86 52.1046C213.535 52.1046 214.082 51.5591 214.082 50.8861C214.082 50.2132 213.535 49.6677 212.86 49.6677C212.185 49.6677 211.637 50.2132 211.637 50.8861C211.637 51.5591 212.185 52.1046 212.86 52.1046Z" fill="#F55F44"/>
<path opacity="0.5" d="M118.38 122.038C119.055 122.038 119.602 121.493 119.602 120.82C119.602 120.147 119.055 119.601 118.38 119.601C117.704 119.601 117.157 120.147 117.157 120.82C117.157 121.493 117.704 122.038 118.38 122.038Z" fill="#F55F44"/>
<path opacity="0.5" d="M200.304 78.4422C200.98 78.4422 201.527 77.8967 201.527 77.2237C201.527 76.5508 200.98 76.0052 200.304 76.0052C199.629 76.0052 199.082 76.5508 199.082 77.2237C199.082 77.8967 199.629 78.4422 200.304 78.4422Z" fill="#F55F44"/>
<path opacity="0.5" d="M95.0659 16.8095C95.7411 16.8095 96.2885 16.264 96.2885 15.591C96.2885 14.9181 95.7411 14.3726 95.0659 14.3726C94.3907 14.3726 93.8433 14.9181 93.8433 15.591C93.8433 16.264 94.3907 16.8095 95.0659 16.8095Z" fill="#4D8AF0"/>
<path opacity="0.5" d="M82.1403 50.0483C82.8155 50.0483 83.3629 49.5027 83.3629 48.8298C83.3629 48.1569 82.8155 47.6113 82.1403 47.6113C81.4651 47.6113 80.9177 48.1569 80.9177 48.8298C80.9177 49.5027 81.4651 50.0483 82.1403 50.0483Z" fill="#47E6B1"/>
<g clip-path="url(#clip0)">
<path d="M149.768 73.0403L155.472 67.3356L157.057 68.9203L151.352 74.625L149.768 73.0403Z" fill="#83A3AB"/>
<path d="M149.451 72.7234L155.156 67.0187L156.106 67.9695L150.402 73.6742L149.451 72.7234Z" fill="#93B7C0"/>
<path d="M139.573 80.7047L134.818 89.2631C136.391 90.8361 138.951 90.8362 140.524 89.2631L142.426 87.3612L139.573 80.7047Z" fill="#93B7C0"/>
<path d="M136.72 81.6555L134.818 83.5573C133.245 85.1304 133.245 87.6898 134.818 89.2629L141.475 82.6064L136.72 81.6555Z" fill="#ACD5DF"/>
<path d="M142.425 87.3615L155.161 74.6263L152.308 71.7735L144.038 76.2393L139.573 84.5088L142.425 87.3615Z" fill="#2D5DB9"/>
<path d="M136.717 81.6528L149.45 68.9196L152.302 71.7719L139.569 84.5052L136.717 81.6528Z" fill="#3B88F5"/>
<path d="M175.196 48.8857L159.458 54.1317L154.212 69.8696C160.006 75.6641 169.401 75.6641 175.196 69.8696C180.99 64.075 180.99 54.6803 175.196 48.8857Z" fill="#93B7C0"/>
<path d="M154.212 48.8858C148.417 54.6803 148.417 64.0751 154.212 69.8696L175.196 48.8858C169.401 43.0912 160.006 43.0912 154.212 48.8858Z" fill="#ACD5DF"/>
<path d="M171.392 52.6895L161.359 56.0336L158.015 66.0659C161.709 69.7597 167.698 69.7597 171.392 66.0659C175.086 62.3721 175.086 56.3833 171.392 52.6895Z" fill="#C4F3FF"/>
<path d="M158.015 52.6898C154.322 56.3835 154.322 62.3724 158.015 66.0662L171.392 52.6898C167.698 48.996 161.709 48.996 158.015 52.6898Z" fill="white"/>
</g>
<path d="M79.5704 152.491C78.6584 152.491 77.7884 152.365 76.9604 152.113C76.1444 151.861 75.4904 151.513 74.9984 151.069C74.7704 150.877 74.6564 150.631 74.6564 150.331C74.6564 150.115 74.7164 149.935 74.8364 149.791C74.9564 149.635 75.1004 149.557 75.2684 149.557C75.4364 149.557 75.6404 149.635 75.8804 149.791C76.9484 150.583 78.1664 150.979 79.5344 150.979C80.4944 150.979 81.2324 150.799 81.7484 150.439C82.2644 150.079 82.5224 149.563 82.5224 148.891C82.5224 148.363 82.2824 147.967 81.8024 147.703C81.3224 147.439 80.5544 147.187 79.4984 146.947C78.4904 146.731 77.6624 146.485 77.0144 146.209C76.3664 145.933 75.8564 145.561 75.4844 145.093C75.1244 144.613 74.9444 144.007 74.9444 143.275C74.9444 142.543 75.1424 141.895 75.5384 141.331C75.9464 140.755 76.5104 140.311 77.2304 139.999C77.9504 139.675 78.7724 139.513 79.6964 139.513C80.5484 139.513 81.3344 139.633 82.0544 139.873C82.7744 140.113 83.3864 140.467 83.8904 140.935C84.1304 141.139 84.2504 141.385 84.2504 141.673C84.2504 141.877 84.1844 142.057 84.0524 142.213C83.9324 142.369 83.7884 142.447 83.6204 142.447C83.4644 142.447 83.2664 142.369 83.0264 142.213C82.4744 141.793 81.9524 141.493 81.4604 141.313C80.9804 141.121 80.3984 141.025 79.7144 141.025C78.7904 141.025 78.0704 141.217 77.5544 141.601C77.0384 141.973 76.7804 142.495 76.7804 143.167C76.7804 143.743 77.0084 144.181 77.4644 144.481C77.9204 144.769 78.6524 145.033 79.6604 145.273C80.7164 145.513 81.5684 145.765 82.2164 146.029C82.8764 146.281 83.3984 146.635 83.7824 147.091C84.1784 147.535 84.3764 148.111 84.3764 148.819C84.3764 149.539 84.1724 150.181 83.7644 150.745C83.3684 151.297 82.8044 151.729 82.0724 152.041C81.3524 152.341 80.5184 152.491 79.5704 152.491ZM93.3215 150.133C93.4895 150.133 93.6275 150.199 93.7355 150.331C93.8435 150.463 93.8975 150.631 93.8975 150.835C93.8975 151.183 93.6815 151.477 93.2495 151.717C92.8295 151.957 92.3675 152.143 91.8635 152.275C91.3715 152.407 90.8975 152.473 90.4415 152.473C89.0495 152.473 87.9515 152.071 87.1475 151.267C86.3435 150.451 85.9415 149.341 85.9415 147.937C85.9415 147.037 86.1155 146.239 86.4635 145.543C86.8235 144.847 87.3215 144.307 87.9575 143.923C88.6055 143.539 89.3375 143.347 90.1535 143.347C91.3295 143.347 92.2595 143.725 92.9435 144.481C93.6275 145.237 93.9695 146.257 93.9695 147.541C93.9695 148.021 93.7535 148.261 93.3215 148.261H87.7595C87.8795 150.121 88.7735 151.051 90.4415 151.051C90.8855 151.051 91.2695 150.991 91.5935 150.871C91.9175 150.751 92.2595 150.595 92.6195 150.403C92.6555 150.379 92.7515 150.331 92.9075 150.259C93.0755 150.175 93.2135 150.133 93.3215 150.133ZM90.1895 144.679C89.4935 144.679 88.9355 144.901 88.5155 145.345C88.0955 145.789 87.8435 146.413 87.7595 147.217H92.4035C92.3675 146.401 92.1575 145.777 91.7735 145.345C91.4015 144.901 90.8735 144.679 90.1895 144.679ZM106.053 143.347C108.021 143.347 109.005 144.529 109.005 146.893V151.573C109.005 151.849 108.921 152.065 108.753 152.221C108.585 152.365 108.363 152.437 108.087 152.437C107.823 152.437 107.607 152.365 107.439 152.221C107.271 152.065 107.187 151.849 107.187 151.573V146.911C107.187 146.179 107.055 145.651 106.791 145.327C106.527 144.991 106.113 144.823 105.549 144.823C104.889 144.823 104.367 145.051 103.983 145.507C103.599 145.951 103.407 146.563 103.407 147.343V151.573C103.407 151.849 103.323 152.065 103.155 152.221C102.987 152.365 102.765 152.437 102.489 152.437C102.225 152.437 102.009 152.365 101.841 152.221C101.673 152.065 101.589 151.849 101.589 151.573V146.911C101.589 146.179 101.457 145.651 101.193 145.327C100.929 144.991 100.515 144.823 99.9509 144.823C99.2909 144.823 98.7629 145.051 98.3669 145.507C97.9829 145.951 97.7909 146.563 97.7909 147.343V151.573C97.7909 151.849 97.7069 152.065 97.5389 152.221C97.3709 152.365 97.1549 152.437 96.8909 152.437C96.6269 152.437 96.4049 152.365 96.2249 152.221C96.0569 152.065 95.9729 151.849 95.9729 151.573V144.247C95.9729 143.983 96.0629 143.773 96.2429 143.617C96.4229 143.461 96.6389 143.383 96.8909 143.383C97.1429 143.383 97.3469 143.461 97.5029 143.617C97.6709 143.761 97.7549 143.965 97.7549 144.229V144.895C98.0189 144.391 98.3849 144.007 98.8529 143.743C99.3209 143.479 99.8609 143.347 100.473 143.347C101.145 143.347 101.697 143.485 102.129 143.761C102.573 144.037 102.903 144.463 103.119 145.039C103.383 144.523 103.773 144.115 104.289 143.815C104.805 143.503 105.393 143.347 106.053 143.347ZM117.158 152.437C116.894 152.437 116.672 152.365 116.492 152.221C116.324 152.077 116.24 151.861 116.24 151.573V140.449C116.24 140.161 116.324 139.945 116.492 139.801C116.672 139.645 116.894 139.567 117.158 139.567C117.422 139.567 117.638 139.645 117.806 139.801C117.974 139.945 118.058 140.161 118.058 140.449V151.573C118.058 151.861 117.974 152.077 117.806 152.221C117.638 152.365 117.422 152.437 117.158 152.437ZM121.518 152.437C121.254 152.437 121.032 152.365 120.852 152.221C120.684 152.077 120.6 151.861 120.6 151.573V144.265C120.6 143.977 120.684 143.761 120.852 143.617C121.032 143.461 121.254 143.383 121.518 143.383C121.782 143.383 121.998 143.461 122.166 143.617C122.334 143.761 122.418 143.977 122.418 144.265V151.573C122.418 151.861 122.334 152.077 122.166 152.221C121.998 152.365 121.782 152.437 121.518 152.437ZM121.518 141.619C121.17 141.619 120.894 141.523 120.69 141.331C120.486 141.139 120.384 140.887 120.384 140.575C120.384 140.263 120.486 140.017 120.69 139.837C120.894 139.645 121.17 139.549 121.518 139.549C121.854 139.549 122.124 139.645 122.328 139.837C122.544 140.017 122.652 140.263 122.652 140.575C122.652 140.887 122.55 141.139 122.346 141.331C122.142 141.523 121.866 141.619 121.518 141.619ZM131.205 143.923C131.277 143.743 131.379 143.611 131.511 143.527C131.655 143.443 131.805 143.401 131.961 143.401C132.189 143.401 132.387 143.479 132.555 143.635C132.735 143.791 132.825 143.977 132.825 144.193C132.825 144.313 132.801 144.427 132.753 144.535L129.315 151.825C129.231 152.017 129.099 152.167 128.919 152.275C128.751 152.371 128.571 152.419 128.379 152.419C128.187 152.419 128.001 152.371 127.821 152.275C127.653 152.167 127.527 152.017 127.443 151.825L124.005 144.535C123.957 144.439 123.933 144.325 123.933 144.193C123.933 143.977 124.029 143.791 124.221 143.635C124.413 143.479 124.629 143.401 124.869 143.401C125.217 143.401 125.475 143.569 125.643 143.905L128.433 150.097L131.205 143.923ZM138.919 143.383C139.495 143.347 139.783 143.593 139.783 144.121C139.783 144.385 139.717 144.583 139.585 144.715C139.453 144.847 139.225 144.925 138.901 144.949L138.361 145.003C137.605 145.075 137.041 145.339 136.669 145.795C136.309 146.251 136.129 146.803 136.129 147.451V151.573C136.129 151.861 136.045 152.077 135.877 152.221C135.709 152.365 135.493 152.437 135.229 152.437C134.965 152.437 134.743 152.365 134.563 152.221C134.395 152.077 134.311 151.861 134.311 151.573V144.247C134.311 143.971 134.395 143.761 134.563 143.617C134.743 143.461 134.965 143.383 135.229 143.383C135.469 143.383 135.667 143.461 135.823 143.617C135.991 143.761 136.075 143.965 136.075 144.229V145.093C136.315 144.565 136.663 144.163 137.119 143.887C137.575 143.611 138.091 143.449 138.667 143.401L138.919 143.383ZM144.543 152.473C143.679 152.473 142.917 152.287 142.257 151.915C141.609 151.543 141.105 151.015 140.745 150.331C140.397 149.635 140.223 148.831 140.223 147.919C140.223 146.995 140.397 146.191 140.745 145.507C141.105 144.811 141.609 144.277 142.257 143.905C142.917 143.533 143.679 143.347 144.543 143.347C145.407 143.347 146.163 143.533 146.811 143.905C147.471 144.277 147.975 144.811 148.323 145.507C148.683 146.191 148.863 146.995 148.863 147.919C148.863 148.831 148.683 149.635 148.323 150.331C147.975 151.015 147.471 151.543 146.811 151.915C146.163 152.287 145.407 152.473 144.543 152.473ZM144.543 151.033C145.347 151.033 145.959 150.769 146.379 150.241C146.811 149.713 147.027 148.939 147.027 147.919C147.027 146.911 146.811 146.143 146.379 145.615C145.947 145.075 145.335 144.805 144.543 144.805C143.751 144.805 143.139 145.075 142.707 145.615C142.275 146.143 142.059 146.911 142.059 147.919C142.059 148.939 142.269 149.713 142.689 150.241C143.121 150.769 143.739 151.033 144.543 151.033ZM153.947 152.473C152.723 152.473 151.721 152.221 150.941 151.717C150.725 151.585 150.569 151.447 150.473 151.303C150.389 151.159 150.347 150.997 150.347 150.817C150.347 150.625 150.401 150.463 150.509 150.331C150.617 150.199 150.755 150.133 150.923 150.133C151.079 150.133 151.325 150.229 151.661 150.421C152.021 150.613 152.369 150.769 152.705 150.889C153.053 151.009 153.485 151.069 154.001 151.069C154.577 151.069 155.027 150.967 155.351 150.763C155.675 150.559 155.837 150.271 155.837 149.899C155.837 149.659 155.771 149.467 155.639 149.323C155.519 149.179 155.303 149.053 154.991 148.945C154.679 148.825 154.217 148.699 153.605 148.567C152.549 148.339 151.787 148.033 151.319 147.649C150.863 147.253 150.635 146.719 150.635 146.047C150.635 145.531 150.785 145.069 151.085 144.661C151.385 144.241 151.799 143.917 152.327 143.689C152.855 143.461 153.455 143.347 154.127 143.347C154.607 143.347 155.075 143.413 155.531 143.545C155.987 143.665 156.389 143.845 156.737 144.085C157.133 144.349 157.331 144.655 157.331 145.003C157.331 145.195 157.271 145.357 157.151 145.489C157.043 145.621 156.911 145.687 156.755 145.687C156.647 145.687 156.539 145.663 156.431 145.615C156.323 145.567 156.179 145.489 155.999 145.381C155.675 145.189 155.369 145.039 155.081 144.931C154.805 144.823 154.457 144.769 154.037 144.769C153.533 144.769 153.125 144.877 152.813 145.093C152.513 145.309 152.363 145.603 152.363 145.975C152.363 146.311 152.501 146.575 152.777 146.767C153.065 146.947 153.599 147.121 154.379 147.289C155.183 147.457 155.813 147.649 156.269 147.865C156.725 148.081 157.049 148.351 157.241 148.675C157.445 148.987 157.547 149.389 157.547 149.881C157.547 150.661 157.217 151.291 156.557 151.771C155.909 152.239 155.039 152.473 153.947 152.473ZM169.051 143.347C171.151 143.347 172.201 144.529 172.201 146.893V151.573C172.201 151.849 172.117 152.065 171.949 152.221C171.793 152.365 171.571 152.437 171.283 152.437C171.007 152.437 170.785 152.359 170.617 152.203C170.461 152.047 170.383 151.837 170.383 151.573V146.983C170.383 146.239 170.233 145.693 169.933 145.345C169.645 144.997 169.189 144.823 168.565 144.823C167.833 144.823 167.245 145.051 166.801 145.507C166.357 145.963 166.135 146.575 166.135 147.343V151.573C166.135 151.837 166.051 152.047 165.883 152.203C165.727 152.359 165.511 152.437 165.235 152.437C164.959 152.437 164.737 152.359 164.569 152.203C164.401 152.047 164.317 151.837 164.317 151.573V144.247C164.317 143.995 164.401 143.791 164.569 143.635C164.749 143.467 164.971 143.383 165.235 143.383C165.499 143.383 165.709 143.461 165.865 143.617C166.021 143.773 166.099 143.977 166.099 144.229V144.967C166.387 144.439 166.789 144.037 167.305 143.761C167.821 143.485 168.403 143.347 169.051 143.347ZM178.378 143.347C179.542 143.347 180.406 143.641 180.97 144.229C181.546 144.817 181.834 145.711 181.834 146.911V151.573C181.834 151.849 181.756 152.065 181.6 152.221C181.444 152.365 181.228 152.437 180.952 152.437C180.688 152.437 180.478 152.359 180.322 152.203C180.166 152.047 180.088 151.837 180.088 151.573V150.907C179.86 151.411 179.518 151.801 179.062 152.077C178.618 152.341 178.096 152.473 177.496 152.473C176.92 152.473 176.392 152.359 175.912 152.131C175.444 151.891 175.072 151.567 174.796 151.159C174.52 150.751 174.382 150.289 174.382 149.773C174.37 149.125 174.532 148.621 174.868 148.261C175.204 147.889 175.75 147.625 176.506 147.469C177.262 147.301 178.312 147.217 179.656 147.217H180.07V146.695C180.07 146.023 179.932 145.537 179.656 145.237C179.38 144.937 178.936 144.787 178.324 144.787C177.904 144.787 177.508 144.841 177.136 144.949C176.764 145.057 176.356 145.213 175.912 145.417C175.588 145.597 175.36 145.687 175.228 145.687C175.048 145.687 174.898 145.621 174.778 145.489C174.67 145.357 174.616 145.189 174.616 144.985C174.616 144.805 174.664 144.649 174.76 144.517C174.868 144.373 175.036 144.235 175.264 144.103C175.684 143.875 176.176 143.695 176.74 143.563C177.304 143.419 177.85 143.347 178.378 143.347ZM177.82 151.123C178.48 151.123 179.02 150.901 179.44 150.457C179.86 150.001 180.07 149.419 180.07 148.711V148.243H179.746C178.81 148.243 178.09 148.285 177.586 148.369C177.082 148.453 176.722 148.597 176.506 148.801C176.29 148.993 176.182 149.275 176.182 149.647C176.182 150.079 176.338 150.433 176.65 150.709C176.962 150.985 177.352 151.123 177.82 151.123ZM189.985 152.437C189.721 152.437 189.499 152.365 189.319 152.221C189.151 152.077 189.067 151.861 189.067 151.573V140.449C189.067 140.161 189.151 139.945 189.319 139.801C189.499 139.645 189.721 139.567 189.985 139.567C190.249 139.567 190.465 139.645 190.633 139.801C190.801 139.945 190.885 140.161 190.885 140.449V151.573C190.885 151.861 190.801 152.077 190.633 152.221C190.465 152.365 190.249 152.437 189.985 152.437ZM194.344 152.437C194.08 152.437 193.858 152.365 193.678 152.221C193.51 152.077 193.426 151.861 193.426 151.573V144.265C193.426 143.977 193.51 143.761 193.678 143.617C193.858 143.461 194.08 143.383 194.344 143.383C194.608 143.383 194.824 143.461 194.992 143.617C195.16 143.761 195.244 143.977 195.244 144.265V151.573C195.244 151.861 195.16 152.077 194.992 152.221C194.824 152.365 194.608 152.437 194.344 152.437ZM194.344 141.619C193.996 141.619 193.72 141.523 193.516 141.331C193.312 141.139 193.21 140.887 193.21 140.575C193.21 140.263 193.312 140.017 193.516 139.837C193.72 139.645 193.996 139.549 194.344 139.549C194.68 139.549 194.95 139.645 195.154 139.837C195.37 140.017 195.478 140.263 195.478 140.575C195.478 140.887 195.376 141.139 195.172 141.331C194.968 141.523 194.692 141.619 194.344 141.619ZM200.845 152.473C199.621 152.473 198.619 152.221 197.839 151.717C197.623 151.585 197.467 151.447 197.371 151.303C197.287 151.159 197.245 150.997 197.245 150.817C197.245 150.625 197.299 150.463 197.407 150.331C197.515 150.199 197.653 150.133 197.821 150.133C197.977 150.133 198.223 150.229 198.559 150.421C198.919 150.613 199.267 150.769 199.603 150.889C199.951 151.009 200.383 151.069 200.899 151.069C201.475 151.069 201.925 150.967 202.249 150.763C202.573 150.559 202.735 150.271 202.735 149.899C202.735 149.659 202.669 149.467 202.537 149.323C202.417 149.179 202.201 149.053 201.889 148.945C201.577 148.825 201.115 148.699 200.503 148.567C199.447 148.339 198.685 148.033 198.217 147.649C197.761 147.253 197.533 146.719 197.533 146.047C197.533 145.531 197.683 145.069 197.983 144.661C198.283 144.241 198.697 143.917 199.225 143.689C199.753 143.461 200.353 143.347 201.025 143.347C201.505 143.347 201.973 143.413 202.429 143.545C202.885 143.665 203.287 143.845 203.635 144.085C204.031 144.349 204.229 144.655 204.229 145.003C204.229 145.195 204.169 145.357 204.049 145.489C203.941 145.621 203.809 145.687 203.653 145.687C203.545 145.687 203.437 145.663 203.329 145.615C203.221 145.567 203.077 145.489 202.897 145.381C202.573 145.189 202.267 145.039 201.979 144.931C201.703 144.823 201.355 144.769 200.935 144.769C200.431 144.769 200.023 144.877 199.711 145.093C199.411 145.309 199.261 145.603 199.261 145.975C199.261 146.311 199.399 146.575 199.675 146.767C199.963 146.947 200.497 147.121 201.277 147.289C202.081 147.457 202.711 147.649 203.167 147.865C203.623 148.081 203.947 148.351 204.139 148.675C204.343 148.987 204.445 149.389 204.445 149.881C204.445 150.661 204.115 151.291 203.455 151.771C202.807 152.239 201.937 152.473 200.845 152.473ZM210.683 151.051C210.947 151.075 211.133 151.147 211.241 151.267C211.361 151.375 211.421 151.531 211.421 151.735C211.421 151.975 211.325 152.161 211.133 152.293C210.953 152.413 210.683 152.461 210.323 152.437L209.837 152.401C208.865 152.329 208.139 152.035 207.659 151.519C207.179 150.991 206.939 150.217 206.939 149.197V144.967H205.859C205.331 144.967 205.067 144.733 205.067 144.265C205.067 144.049 205.133 143.881 205.265 143.761C205.409 143.629 205.607 143.563 205.859 143.563H206.939V141.709C206.939 141.433 207.017 141.217 207.173 141.061C207.341 140.905 207.563 140.827 207.839 140.827C208.115 140.827 208.337 140.905 208.505 141.061C208.673 141.217 208.757 141.433 208.757 141.709V143.563H210.539C210.791 143.563 210.983 143.629 211.115 143.761C211.259 143.881 211.331 144.049 211.331 144.265C211.331 144.493 211.259 144.667 211.115 144.787C210.983 144.907 210.791 144.967 210.539 144.967H208.757V149.323C208.757 149.887 208.871 150.301 209.099 150.565C209.339 150.829 209.699 150.979 210.179 151.015L210.683 151.051ZM216.417 143.347C217.581 143.347 218.445 143.641 219.009 144.229C219.585 144.817 219.873 145.711 219.873 146.911V151.573C219.873 151.849 219.795 152.065 219.639 152.221C219.483 152.365 219.267 152.437 218.991 152.437C218.727 152.437 218.517 152.359 218.361 152.203C218.205 152.047 218.127 151.837 218.127 151.573V150.907C217.899 151.411 217.557 151.801 217.101 152.077C216.657 152.341 216.135 152.473 215.535 152.473C214.959 152.473 214.431 152.359 213.951 152.131C213.483 151.891 213.111 151.567 212.835 151.159C212.559 150.751 212.421 150.289 212.421 149.773C212.409 149.125 212.571 148.621 212.907 148.261C213.243 147.889 213.789 147.625 214.545 147.469C215.301 147.301 216.351 147.217 217.695 147.217H218.109V146.695C218.109 146.023 217.971 145.537 217.695 145.237C217.419 144.937 216.975 144.787 216.363 144.787C215.943 144.787 215.547 144.841 215.175 144.949C214.803 145.057 214.395 145.213 213.951 145.417C213.627 145.597 213.399 145.687 213.267 145.687C213.087 145.687 212.937 145.621 212.817 145.489C212.709 145.357 212.655 145.189 212.655 144.985C212.655 144.805 212.703 144.649 212.799 144.517C212.907 144.373 213.075 144.235 213.303 144.103C213.723 143.875 214.215 143.695 214.779 143.563C215.343 143.419 215.889 143.347 216.417 143.347ZM215.859 151.123C216.519 151.123 217.059 150.901 217.479 150.457C217.899 150.001 218.109 149.419 218.109 148.711V148.243H217.785C216.849 148.243 216.129 148.285 215.625 148.369C215.121 148.453 214.761 148.597 214.545 148.801C214.329 148.993 214.221 149.275 214.221 149.647C214.221 150.079 214.377 150.433 214.689 150.709C215.001 150.985 215.391 151.123 215.859 151.123Z" fill="#454E5F"/>
<path d="M17.0391 182.531C17.1137 182.649 17.1511 182.771 17.1511 182.899C17.1511 183.059 17.0871 183.193 16.9591 183.299C16.8417 183.395 16.7031 183.443 16.5431 183.443C16.2977 183.443 16.1057 183.337 15.9671 183.123L13.8231 179.731C13.5457 179.294 13.2577 178.995 12.9591 178.835C12.6604 178.665 12.2551 178.579 11.7431 178.579H9.72706V182.755C9.72706 182.958 9.6684 183.123 9.55106 183.251C9.43373 183.369 9.27906 183.427 9.08706 183.427C8.8844 183.427 8.7244 183.369 8.60706 183.251C8.48973 183.123 8.43106 182.958 8.43106 182.755V172.707C8.43106 172.515 8.48973 172.361 8.60706 172.243C8.73506 172.126 8.9004 172.067 9.10306 172.067H13.0711C14.2977 172.067 15.2311 172.339 15.8711 172.883C16.5217 173.427 16.8471 174.227 16.8471 175.283C16.8471 176.179 16.5857 176.899 16.0631 177.443C15.5511 177.987 14.8151 178.318 13.8551 178.435C14.1217 178.521 14.3617 178.659 14.5751 178.851C14.7884 179.043 15.0017 179.31 15.2151 179.651L17.0391 182.531ZM12.9591 177.491C13.8337 177.491 14.4844 177.31 14.9111 176.947C15.3484 176.585 15.5671 176.035 15.5671 175.299C15.5671 174.574 15.3537 174.035 14.9271 173.683C14.5004 173.331 13.8444 173.155 12.9591 173.155H9.72706V177.491H12.9591ZM25.2398 181.539C25.3571 181.539 25.4585 181.587 25.5438 181.683C25.6291 181.779 25.6718 181.902 25.6718 182.051C25.6718 182.318 25.4851 182.563 25.1118 182.787C24.7278 183.011 24.3225 183.182 23.8958 183.299C23.4691 183.406 23.0531 183.459 22.6478 183.459C21.4425 183.459 20.4878 183.102 19.7838 182.387C19.0905 181.673 18.7438 180.686 18.7438 179.427C18.7438 178.627 18.8985 177.923 19.2078 177.315C19.5171 176.697 19.9491 176.217 20.5038 175.875C21.0691 175.534 21.7091 175.363 22.4238 175.363C23.4371 175.363 24.2425 175.694 24.8398 176.355C25.4371 177.017 25.7358 177.913 25.7358 179.043C25.7358 179.257 25.6931 179.411 25.6078 179.507C25.5225 179.603 25.3838 179.651 25.1918 179.651H20.0398C20.1358 181.486 21.0051 182.403 22.6478 182.403C23.0638 182.403 23.4211 182.35 23.7198 182.243C24.0185 182.126 24.3385 181.971 24.6798 181.779C24.9571 181.619 25.1438 181.539 25.2398 181.539ZM22.4398 176.371C21.7571 176.371 21.2078 176.585 20.7918 177.011C20.3865 177.438 20.1465 178.041 20.0718 178.819H24.5998C24.5785 178.03 24.3811 177.427 24.0078 177.011C23.6345 176.585 23.1118 176.371 22.4398 176.371ZM31.0697 173.091C30.5044 173.134 30.0777 173.315 29.7897 173.635C29.5017 173.945 29.3577 174.414 29.3577 175.043V175.555H31.1337C31.315 175.555 31.4537 175.603 31.5497 175.699C31.6457 175.795 31.6937 175.923 31.6937 176.083C31.6937 176.243 31.6457 176.366 31.5497 176.451C31.4537 176.537 31.315 176.579 31.1337 176.579H29.3577V182.787C29.3577 182.99 29.2937 183.15 29.1657 183.267C29.0484 183.374 28.899 183.427 28.7177 183.427C28.5257 183.427 28.3657 183.374 28.2377 183.267C28.1204 183.15 28.0617 182.99 28.0617 182.787V176.579H26.9897C26.8084 176.579 26.6644 176.537 26.5577 176.451C26.4617 176.355 26.4137 176.233 26.4137 176.083C26.4137 175.923 26.4617 175.795 26.5577 175.699C26.6644 175.603 26.8084 175.555 26.9897 175.555H28.0617V175.267C28.0617 174.307 28.3017 173.555 28.7817 173.011C29.2617 172.457 29.9497 172.147 30.8457 172.083L31.2617 172.051C31.539 172.03 31.7364 172.057 31.8537 172.131C31.9817 172.206 32.0457 172.339 32.0457 172.531C32.0457 172.841 31.859 173.017 31.4857 173.059L31.0697 173.091ZM35.9856 175.363C37.9376 175.363 38.9136 176.387 38.9136 178.435V182.787C38.9136 182.979 38.8549 183.134 38.7376 183.251C38.6309 183.369 38.4816 183.427 38.2896 183.427C38.0976 183.427 37.9429 183.369 37.8256 183.251C37.7082 183.134 37.6496 182.979 37.6496 182.787V182.019C37.4469 182.478 37.1376 182.835 36.7216 183.091C36.3056 183.337 35.8256 183.459 35.2816 183.459C34.7802 183.459 34.3162 183.358 33.8896 183.155C33.4736 182.953 33.1429 182.67 32.8976 182.307C32.6522 181.945 32.5296 181.545 32.5296 181.107C32.5296 180.521 32.6789 180.067 32.9776 179.747C33.2762 179.417 33.7669 179.182 34.4496 179.043C35.1322 178.894 36.0816 178.819 37.2976 178.819H37.6496V178.291C37.6496 177.651 37.5162 177.182 37.2496 176.883C36.9936 176.585 36.5722 176.435 35.9856 176.435C35.2602 176.435 34.5242 176.633 33.7776 177.027C33.4896 177.209 33.2869 177.299 33.1696 177.299C33.0416 177.299 32.9349 177.251 32.8496 177.155C32.7642 177.059 32.7216 176.937 32.7216 176.787C32.7216 176.638 32.7642 176.51 32.8496 176.403C32.9456 176.286 33.0949 176.169 33.2976 176.051C33.6709 175.838 34.0922 175.673 34.5616 175.555C35.0416 175.427 35.5162 175.363 35.9856 175.363ZM35.4576 182.435C36.0976 182.435 36.6202 182.222 37.0256 181.795C37.4416 181.358 37.6496 180.798 37.6496 180.115V179.651H37.3616C36.4229 179.651 35.7082 179.694 35.2176 179.779C34.7269 179.854 34.3749 179.987 34.1616 180.179C33.9589 180.361 33.8576 180.633 33.8576 180.995C33.8576 181.411 34.0069 181.758 34.3056 182.035C34.6149 182.302 34.9989 182.435 35.4576 182.435ZM46.9659 181.523C47.0833 181.523 47.1793 181.571 47.2539 181.667C47.3393 181.763 47.3819 181.886 47.3819 182.035C47.3819 182.174 47.3446 182.302 47.2699 182.419C47.1953 182.526 47.0566 182.649 46.8539 182.787C46.5873 182.969 46.2726 183.118 45.9099 183.235C45.5579 183.353 45.1899 183.422 44.8059 183.443L44.7419 184.051C44.8699 184.019 45.0086 184.003 45.1579 184.003C45.4886 184.003 45.7659 184.094 45.9899 184.275C46.2246 184.467 46.3419 184.745 46.3419 185.107C46.3419 185.502 46.1766 185.822 45.8459 186.067C45.5153 186.313 45.0513 186.435 44.4539 186.435C44.0699 186.435 43.7073 186.371 43.3659 186.243C43.2806 186.211 43.2113 186.158 43.1579 186.083C43.1153 186.019 43.0939 185.95 43.0939 185.875C43.0939 185.779 43.1259 185.694 43.1899 185.619C43.2539 185.555 43.3393 185.523 43.4459 185.523C43.4993 185.523 43.5419 185.529 43.5739 185.539C43.8619 185.625 44.1606 185.667 44.4699 185.667C44.7686 185.667 44.9926 185.619 45.1419 185.523C45.3019 185.427 45.3819 185.289 45.3819 185.107C45.3819 184.969 45.3393 184.862 45.2539 184.787C45.1686 184.713 45.0459 184.675 44.8859 184.675C44.7686 184.675 44.6193 184.697 44.4379 184.739C44.2566 184.793 44.1446 184.819 44.1019 184.819C44.0166 184.819 43.9366 184.787 43.8619 184.723C43.7979 184.67 43.7713 184.601 43.7819 184.515L43.9099 183.427C42.9713 183.289 42.2193 182.867 41.6539 182.163C41.0993 181.449 40.8219 180.542 40.8219 179.443C40.8219 178.643 40.9766 177.934 41.2859 177.315C41.6059 176.697 42.0486 176.217 42.6139 175.875C43.1793 175.534 43.8299 175.363 44.5659 175.363C44.9713 175.363 45.3713 175.422 45.7659 175.539C46.1713 175.646 46.5233 175.806 46.8219 176.019C47.0139 176.147 47.1473 176.275 47.2219 176.403C47.3073 176.521 47.3499 176.654 47.3499 176.803C47.3499 176.953 47.3073 177.075 47.2219 177.171C47.1473 177.267 47.0459 177.315 46.9179 177.315C46.8433 177.315 46.7633 177.294 46.6779 177.251C46.5926 177.209 46.5179 177.166 46.4539 177.123C46.4006 177.081 46.3633 177.054 46.3419 177.043C46.0646 176.862 45.7979 176.718 45.5419 176.611C45.2966 176.505 44.9926 176.451 44.6299 176.451C43.8513 176.451 43.2433 176.718 42.8059 177.251C42.3793 177.774 42.1659 178.505 42.1659 179.443C42.1659 180.382 42.3793 181.107 42.8059 181.619C43.2433 182.131 43.8513 182.387 44.6299 182.387C44.9926 182.387 45.3019 182.334 45.5579 182.227C45.8246 182.121 46.0913 181.977 46.3579 181.795C46.4753 181.721 46.5873 181.657 46.6939 181.603C46.8006 181.55 46.8913 181.523 46.9659 181.523ZM52.1262 175.363C54.0782 175.363 55.0542 176.387 55.0542 178.435V182.787C55.0542 182.979 54.9955 183.134 54.8782 183.251C54.7715 183.369 54.6222 183.427 54.4302 183.427C54.2382 183.427 54.0835 183.369 53.9662 183.251C53.8489 183.134 53.7902 182.979 53.7902 182.787V182.019C53.5875 182.478 53.2782 182.835 52.8622 183.091C52.4462 183.337 51.9662 183.459 51.4222 183.459C50.9209 183.459 50.4569 183.358 50.0302 183.155C49.6142 182.953 49.2835 182.67 49.0382 182.307C48.7929 181.945 48.6702 181.545 48.6702 181.107C48.6702 180.521 48.8195 180.067 49.1182 179.747C49.4169 179.417 49.9075 179.182 50.5902 179.043C51.2729 178.894 52.2222 178.819 53.4382 178.819H53.7902V178.291C53.7902 177.651 53.6569 177.182 53.3902 176.883C53.1342 176.585 52.7129 176.435 52.1262 176.435C51.4009 176.435 50.6649 176.633 49.9182 177.027C49.6302 177.209 49.4275 177.299 49.3102 177.299C49.1822 177.299 49.0755 177.251 48.9902 177.155C48.9049 177.059 48.8622 176.937 48.8622 176.787C48.8622 176.638 48.9049 176.51 48.9902 176.403C49.0862 176.286 49.2355 176.169 49.4382 176.051C49.8115 175.838 50.2329 175.673 50.7022 175.555C51.1822 175.427 51.6569 175.363 52.1262 175.363ZM51.5982 182.435C52.2382 182.435 52.7609 182.222 53.1662 181.795C53.5822 181.358 53.7902 180.798 53.7902 180.115V179.651H53.5022C52.5635 179.651 51.8489 179.694 51.3582 179.779C50.8675 179.854 50.5155 179.987 50.3022 180.179C50.0995 180.361 49.9982 180.633 49.9982 180.995C49.9982 181.411 50.1475 181.758 50.4462 182.035C50.7555 182.302 51.1395 182.435 51.5982 182.435ZM64.1756 183.459C63.6849 183.459 63.2156 183.401 62.7676 183.283C62.3302 183.166 61.9409 183.001 61.5996 182.787C61.4076 182.659 61.2689 182.542 61.1836 182.435C61.1089 182.318 61.0716 182.179 61.0716 182.019C61.0716 181.881 61.1089 181.769 61.1836 181.683C61.2689 181.587 61.3756 181.539 61.5036 181.539C61.6316 181.539 61.8182 181.619 62.0636 181.779C62.3836 181.971 62.6982 182.126 63.0076 182.243C63.3276 182.35 63.7222 182.403 64.1916 182.403C64.7676 182.403 65.2156 182.302 65.5356 182.099C65.8556 181.897 66.0156 181.603 66.0156 181.219C66.0156 180.985 65.9569 180.798 65.8396 180.659C65.7222 180.51 65.5196 180.382 65.2316 180.275C64.9436 180.158 64.5222 180.041 63.9676 179.923C63.0289 179.721 62.3569 179.449 61.9516 179.107C61.5462 178.766 61.3436 178.302 61.3436 177.715C61.3436 177.257 61.4716 176.851 61.7276 176.499C61.9836 176.147 62.3356 175.87 62.7836 175.667C63.2422 175.465 63.7596 175.363 64.3356 175.363C64.7516 175.363 65.1516 175.422 65.5356 175.539C65.9302 175.646 66.2769 175.801 66.5756 176.003C66.9382 176.259 67.1196 176.526 67.1196 176.803C67.1196 176.942 67.0769 177.059 66.9916 177.155C66.9062 177.251 66.8049 177.299 66.6876 177.299C66.5596 177.299 66.3676 177.209 66.1116 177.027C65.8129 176.835 65.5302 176.686 65.2636 176.579C64.9969 176.473 64.6662 176.419 64.2716 176.419C63.7702 176.419 63.3649 176.531 63.0556 176.755C62.7569 176.979 62.6076 177.278 62.6076 177.651C62.6076 177.886 62.6609 178.078 62.7676 178.227C62.8849 178.366 63.0716 178.494 63.3276 178.611C63.5942 178.718 63.9729 178.825 64.4636 178.931C65.1889 179.091 65.7489 179.267 66.1436 179.459C66.5489 179.651 66.8369 179.886 67.0076 180.163C67.1782 180.441 67.2636 180.793 67.2636 181.219C67.2636 181.891 66.9809 182.435 66.4156 182.851C65.8502 183.257 65.1036 183.459 64.1756 183.459ZM75.1591 175.395C75.3617 175.395 75.5164 175.454 75.6231 175.571C75.7404 175.689 75.7991 175.843 75.7991 176.035V182.803C75.7991 182.985 75.7404 183.134 75.6231 183.251C75.5164 183.369 75.3617 183.427 75.1591 183.427C74.9671 183.427 74.8124 183.374 74.6951 183.267C74.5884 183.15 74.5351 183.001 74.5351 182.819V182.019C74.2897 182.489 73.9431 182.846 73.4951 183.091C73.0577 183.337 72.5617 183.459 72.0071 183.459C71.0791 183.459 70.3804 183.203 69.9111 182.691C69.4417 182.169 69.2071 181.401 69.2071 180.387V176.035C69.2071 175.843 69.2657 175.689 69.3831 175.571C69.5004 175.454 69.6604 175.395 69.8631 175.395C70.0657 175.395 70.2204 175.454 70.3271 175.571C70.4444 175.689 70.5031 175.843 70.5031 176.035V180.355C70.5031 181.049 70.6417 181.561 70.9191 181.891C71.1964 182.211 71.6337 182.371 72.2311 182.371C72.9137 182.371 73.4631 182.153 73.8791 181.715C74.2951 181.267 74.5031 180.681 74.5031 179.955V176.035C74.5031 175.843 74.5617 175.689 74.6791 175.571C74.7964 175.454 74.9564 175.395 75.1591 175.395ZM81.3918 175.363C83.3438 175.363 84.3198 176.387 84.3198 178.435V182.787C84.3198 182.979 84.2611 183.134 84.1438 183.251C84.0371 183.369 83.8878 183.427 83.6958 183.427C83.5038 183.427 83.3491 183.369 83.2318 183.251C83.1145 183.134 83.0558 182.979 83.0558 182.787V182.019C82.8531 182.478 82.5438 182.835 82.1278 183.091C81.7118 183.337 81.2318 183.459 80.6878 183.459C80.1865 183.459 79.7225 183.358 79.2958 183.155C78.8798 182.953 78.5491 182.67 78.3038 182.307C78.0585 181.945 77.9358 181.545 77.9358 181.107C77.9358 180.521 78.0851 180.067 78.3838 179.747C78.6825 179.417 79.1731 179.182 79.8558 179.043C80.5385 178.894 81.4878 178.819 82.7038 178.819H83.0558V178.291C83.0558 177.651 82.9225 177.182 82.6558 176.883C82.3998 176.585 81.9785 176.435 81.3918 176.435C80.6665 176.435 79.9305 176.633 79.1838 177.027C78.8958 177.209 78.6931 177.299 78.5758 177.299C78.4478 177.299 78.3411 177.251 78.2558 177.155C78.1705 177.059 78.1278 176.937 78.1278 176.787C78.1278 176.638 78.1705 176.51 78.2558 176.403C78.3518 176.286 78.5011 176.169 78.7038 176.051C79.0771 175.838 79.4985 175.673 79.9678 175.555C80.4478 175.427 80.9225 175.363 81.3918 175.363ZM80.8638 182.435C81.5038 182.435 82.0265 182.222 82.4318 181.795C82.8478 181.358 83.0558 180.798 83.0558 180.115V179.651H82.7678C81.8291 179.651 81.1145 179.694 80.6238 179.779C80.1331 179.854 79.7811 179.987 79.5678 180.179C79.3651 180.361 79.2638 180.633 79.2638 180.995C79.2638 181.411 79.4131 181.758 79.7118 182.035C80.0211 182.302 80.4051 182.435 80.8638 182.435ZM94.7372 175.363C95.4199 175.363 96.0225 175.529 96.5452 175.859C97.0679 176.19 97.4732 176.659 97.7612 177.267C98.0492 177.875 98.1932 178.579 98.1932 179.379C98.1932 180.19 98.0492 180.905 97.7612 181.523C97.4732 182.131 97.0679 182.606 96.5452 182.947C96.0225 183.289 95.4199 183.459 94.7372 183.459C94.1292 183.459 93.5959 183.326 93.1372 183.059C92.6892 182.793 92.3479 182.414 92.1132 181.923V182.787C92.1132 182.979 92.0545 183.134 91.9372 183.251C91.8305 183.369 91.6759 183.427 91.4732 183.427C91.2705 183.427 91.1105 183.369 90.9932 183.251C90.8759 183.134 90.8172 182.979 90.8172 182.787V172.611C90.8172 172.43 90.8759 172.281 90.9932 172.163C91.1105 172.046 91.2705 171.987 91.4732 171.987C91.6759 171.987 91.8305 172.046 91.9372 172.163C92.0545 172.27 92.1132 172.419 92.1132 172.611V176.899C92.3479 176.409 92.6892 176.03 93.1372 175.763C93.5959 175.497 94.1292 175.363 94.7372 175.363ZM94.4812 182.387C95.2385 182.387 95.8252 182.126 96.2412 181.603C96.6572 181.07 96.8652 180.329 96.8652 179.379C96.8652 178.451 96.6572 177.731 96.2412 177.219C95.8252 176.707 95.2385 176.451 94.4812 176.451C93.7239 176.451 93.1372 176.707 92.7212 177.219C92.3159 177.731 92.1132 178.462 92.1132 179.411C92.1132 180.361 92.3159 181.097 92.7212 181.619C93.1372 182.131 93.7239 182.387 94.4812 182.387ZM106.05 175.395C106.252 175.395 106.407 175.454 106.514 175.571C106.631 175.689 106.69 175.843 106.69 176.035V182.803C106.69 182.985 106.631 183.134 106.514 183.251C106.407 183.369 106.252 183.427 106.05 183.427C105.858 183.427 105.703 183.374 105.586 183.267C105.479 183.15 105.426 183.001 105.426 182.819V182.019C105.18 182.489 104.834 182.846 104.386 183.091C103.948 183.337 103.452 183.459 102.898 183.459C101.97 183.459 101.271 183.203 100.802 182.691C100.332 182.169 100.098 181.401 100.098 180.387V176.035C100.098 175.843 100.156 175.689 100.274 175.571C100.391 175.454 100.551 175.395 100.754 175.395C100.956 175.395 101.111 175.454 101.218 175.571C101.335 175.689 101.394 175.843 101.394 176.035V180.355C101.394 181.049 101.532 181.561 101.81 181.891C102.087 182.211 102.524 182.371 103.122 182.371C103.804 182.371 104.354 182.153 104.77 181.715C105.186 181.267 105.394 180.681 105.394 179.955V176.035C105.394 175.843 105.452 175.689 105.57 175.571C105.687 175.454 105.847 175.395 106.05 175.395ZM111.722 183.459C111.232 183.459 110.762 183.401 110.314 183.283C109.877 183.166 109.488 183.001 109.146 182.787C108.954 182.659 108.816 182.542 108.73 182.435C108.656 182.318 108.618 182.179 108.618 182.019C108.618 181.881 108.656 181.769 108.73 181.683C108.816 181.587 108.922 181.539 109.05 181.539C109.178 181.539 109.365 181.619 109.61 181.779C109.93 181.971 110.245 182.126 110.554 182.243C110.874 182.35 111.269 182.403 111.738 182.403C112.314 182.403 112.762 182.302 113.082 182.099C113.402 181.897 113.562 181.603 113.562 181.219C113.562 180.985 113.504 180.798 113.386 180.659C113.269 180.51 113.066 180.382 112.778 180.275C112.49 180.158 112.069 180.041 111.514 179.923C110.576 179.721 109.904 179.449 109.498 179.107C109.093 178.766 108.89 178.302 108.89 177.715C108.89 177.257 109.018 176.851 109.274 176.499C109.53 176.147 109.882 175.87 110.33 175.667C110.789 175.465 111.306 175.363 111.882 175.363C112.298 175.363 112.698 175.422 113.082 175.539C113.477 175.646 113.824 175.801 114.122 176.003C114.485 176.259 114.666 176.526 114.666 176.803C114.666 176.942 114.624 177.059 114.538 177.155C114.453 177.251 114.352 177.299 114.234 177.299C114.106 177.299 113.914 177.209 113.658 177.027C113.36 176.835 113.077 176.686 112.81 176.579C112.544 176.473 112.213 176.419 111.818 176.419C111.317 176.419 110.912 176.531 110.602 176.755C110.304 176.979 110.154 177.278 110.154 177.651C110.154 177.886 110.208 178.078 110.314 178.227C110.432 178.366 110.618 178.494 110.874 178.611C111.141 178.718 111.52 178.825 112.01 178.931C112.736 179.091 113.296 179.267 113.69 179.459C114.096 179.651 114.384 179.886 114.554 180.163C114.725 180.441 114.81 180.793 114.81 181.219C114.81 181.891 114.528 182.435 113.962 182.851C113.397 183.257 112.65 183.459 111.722 183.459ZM120.002 183.459C119.277 183.459 118.631 183.294 118.066 182.963C117.511 182.633 117.079 182.163 116.77 181.555C116.471 180.947 116.322 180.243 116.322 179.443C116.322 178.643 116.477 177.934 116.786 177.315C117.106 176.697 117.549 176.217 118.114 175.875C118.679 175.534 119.33 175.363 120.066 175.363C120.471 175.363 120.871 175.422 121.266 175.539C121.671 175.646 122.023 175.806 122.322 176.019C122.514 176.147 122.647 176.275 122.722 176.403C122.807 176.521 122.85 176.654 122.85 176.803C122.85 176.953 122.807 177.075 122.722 177.171C122.647 177.267 122.546 177.315 122.418 177.315C122.343 177.315 122.263 177.294 122.178 177.251C122.093 177.209 122.018 177.166 121.954 177.123C121.901 177.081 121.863 177.054 121.842 177.043C121.565 176.862 121.298 176.718 121.042 176.611C120.797 176.505 120.493 176.451 120.13 176.451C119.351 176.451 118.743 176.718 118.306 177.251C117.879 177.774 117.666 178.505 117.666 179.443C117.666 180.382 117.879 181.107 118.306 181.619C118.743 182.131 119.351 182.387 120.13 182.387C120.493 182.387 120.802 182.334 121.058 182.227C121.325 182.121 121.591 181.977 121.858 181.795C121.975 181.721 122.087 181.657 122.194 181.603C122.301 181.55 122.391 181.523 122.466 181.523C122.583 181.523 122.679 181.571 122.754 181.667C122.839 181.763 122.882 181.886 122.882 182.035C122.882 182.174 122.845 182.302 122.77 182.419C122.695 182.526 122.557 182.649 122.354 182.787C122.055 182.99 121.693 183.155 121.266 183.283C120.85 183.401 120.429 183.459 120.002 183.459ZM127.626 175.363C129.578 175.363 130.554 176.387 130.554 178.435V182.787C130.554 182.979 130.496 183.134 130.378 183.251C130.272 183.369 130.122 183.427 129.93 183.427C129.738 183.427 129.584 183.369 129.466 183.251C129.349 183.134 129.29 182.979 129.29 182.787V182.019C129.088 182.478 128.778 182.835 128.362 183.091C127.946 183.337 127.466 183.459 126.922 183.459C126.421 183.459 125.957 183.358 125.53 183.155C125.114 182.953 124.784 182.67 124.538 182.307C124.293 181.945 124.17 181.545 124.17 181.107C124.17 180.521 124.32 180.067 124.618 179.747C124.917 179.417 125.408 179.182 126.09 179.043C126.773 178.894 127.722 178.819 128.938 178.819H129.29V178.291C129.29 177.651 129.157 177.182 128.89 176.883C128.634 176.585 128.213 176.435 127.626 176.435C126.901 176.435 126.165 176.633 125.418 177.027C125.13 177.209 124.928 177.299 124.81 177.299C124.682 177.299 124.576 177.251 124.49 177.155C124.405 177.059 124.362 176.937 124.362 176.787C124.362 176.638 124.405 176.51 124.49 176.403C124.586 176.286 124.736 176.169 124.938 176.051C125.312 175.838 125.733 175.673 126.202 175.555C126.682 175.427 127.157 175.363 127.626 175.363ZM127.098 182.435C127.738 182.435 128.261 182.222 128.666 181.795C129.082 181.358 129.29 180.798 129.29 180.115V179.651H129.002C128.064 179.651 127.349 179.694 126.858 179.779C126.368 179.854 126.016 179.987 125.802 180.179C125.6 180.361 125.498 180.633 125.498 180.995C125.498 181.411 125.648 181.758 125.946 182.035C126.256 182.302 126.64 182.435 127.098 182.435ZM140.284 183.459C139.548 183.459 138.897 183.294 138.332 182.963C137.777 182.633 137.345 182.163 137.036 181.555C136.737 180.937 136.588 180.222 136.588 179.411C136.588 178.601 136.737 177.891 137.036 177.283C137.345 176.665 137.777 176.19 138.332 175.859C138.897 175.529 139.548 175.363 140.284 175.363C141.02 175.363 141.67 175.529 142.236 175.859C142.801 176.19 143.233 176.665 143.532 177.283C143.841 177.891 143.996 178.601 143.996 179.411C143.996 180.222 143.841 180.937 143.532 181.555C143.233 182.163 142.801 182.633 142.236 182.963C141.67 183.294 141.02 183.459 140.284 183.459ZM140.284 182.387C141.052 182.387 141.638 182.137 142.044 181.635C142.46 181.123 142.668 180.382 142.668 179.411C142.668 178.462 142.46 177.731 142.044 177.219C141.628 176.697 141.041 176.435 140.284 176.435C139.526 176.435 138.94 176.697 138.524 177.219C138.108 177.731 137.9 178.462 137.9 179.411C137.9 180.371 138.102 181.107 138.508 181.619C138.924 182.131 139.516 182.387 140.284 182.387ZM151.847 175.395C152.049 175.395 152.204 175.454 152.311 175.571C152.428 175.689 152.487 175.843 152.487 176.035V182.803C152.487 182.985 152.428 183.134 152.311 183.251C152.204 183.369 152.049 183.427 151.847 183.427C151.655 183.427 151.5 183.374 151.383 183.267C151.276 183.15 151.223 183.001 151.223 182.819V182.019C150.977 182.489 150.631 182.846 150.183 183.091C149.745 183.337 149.249 183.459 148.695 183.459C147.767 183.459 147.068 183.203 146.599 182.691C146.129 182.169 145.895 181.401 145.895 180.387V176.035C145.895 175.843 145.953 175.689 146.071 175.571C146.188 175.454 146.348 175.395 146.551 175.395C146.753 175.395 146.908 175.454 147.015 175.571C147.132 175.689 147.191 175.843 147.191 176.035V180.355C147.191 181.049 147.329 181.561 147.607 181.891C147.884 182.211 148.321 182.371 148.919 182.371C149.601 182.371 150.151 182.153 150.567 181.715C150.983 181.267 151.191 180.681 151.191 179.955V176.035C151.191 175.843 151.249 175.689 151.367 175.571C151.484 175.454 151.644 175.395 151.847 175.395ZM162.236 183.459C161.511 183.459 160.866 183.294 160.3 182.963C159.746 182.633 159.314 182.163 159.004 181.555C158.706 180.947 158.556 180.243 158.556 179.443C158.556 178.643 158.711 177.934 159.02 177.315C159.34 176.697 159.783 176.217 160.348 175.875C160.914 175.534 161.564 175.363 162.3 175.363C162.706 175.363 163.106 175.422 163.5 175.539C163.906 175.646 164.258 175.806 164.556 176.019C164.748 176.147 164.882 176.275 164.956 176.403C165.042 176.521 165.084 176.654 165.084 176.803C165.084 176.953 165.042 177.075 164.956 177.171C164.882 177.267 164.78 177.315 164.652 177.315C164.578 177.315 164.498 177.294 164.412 177.251C164.327 177.209 164.252 177.166 164.188 177.123C164.135 177.081 164.098 177.054 164.076 177.043C163.799 176.862 163.532 176.718 163.276 176.611C163.031 176.505 162.727 176.451 162.364 176.451C161.586 176.451 160.978 176.718 160.54 177.251C160.114 177.774 159.9 178.505 159.9 179.443C159.9 180.382 160.114 181.107 160.54 181.619C160.978 182.131 161.586 182.387 162.364 182.387C162.727 182.387 163.036 182.334 163.292 182.227C163.559 182.121 163.826 181.977 164.092 181.795C164.21 181.721 164.322 181.657 164.428 181.603C164.535 181.55 164.626 181.523 164.7 181.523C164.818 181.523 164.914 181.571 164.988 181.667C165.074 181.763 165.116 181.886 165.116 182.035C165.116 182.174 165.079 182.302 165.004 182.419C164.93 182.526 164.791 182.649 164.588 182.787C164.29 182.99 163.927 183.155 163.5 183.283C163.084 183.401 162.663 183.459 162.236 183.459ZM169.861 175.363C171.813 175.363 172.789 176.387 172.789 178.435V182.787C172.789 182.979 172.73 183.134 172.613 183.251C172.506 183.369 172.357 183.427 172.165 183.427C171.973 183.427 171.818 183.369 171.701 183.251C171.583 183.134 171.525 182.979 171.525 182.787V182.019C171.322 182.478 171.013 182.835 170.597 183.091C170.181 183.337 169.701 183.459 169.157 183.459C168.655 183.459 168.191 183.358 167.765 183.155C167.349 182.953 167.018 182.67 166.773 182.307C166.527 181.945 166.405 181.545 166.405 181.107C166.405 180.521 166.554 180.067 166.853 179.747C167.151 179.417 167.642 179.182 168.325 179.043C169.007 178.894 169.957 178.819 171.173 178.819H171.525V178.291C171.525 177.651 171.391 177.182 171.125 176.883C170.869 176.585 170.447 176.435 169.861 176.435C169.135 176.435 168.399 176.633 167.653 177.027C167.365 177.209 167.162 177.299 167.045 177.299C166.917 177.299 166.81 177.251 166.725 177.155C166.639 177.059 166.597 176.937 166.597 176.787C166.597 176.638 166.639 176.51 166.725 176.403C166.821 176.286 166.97 176.169 167.173 176.051C167.546 175.838 167.967 175.673 168.437 175.555C168.917 175.427 169.391 175.363 169.861 175.363ZM169.333 182.435C169.973 182.435 170.495 182.222 170.901 181.795C171.317 181.358 171.525 180.798 171.525 180.115V179.651H171.237C170.298 179.651 169.583 179.694 169.093 179.779C168.602 179.854 168.25 179.987 168.037 180.179C167.834 180.361 167.733 180.633 167.733 180.995C167.733 181.411 167.882 181.758 168.181 182.035C168.49 182.302 168.874 182.435 169.333 182.435ZM181.417 171.987C181.62 171.987 181.78 172.046 181.897 172.163C182.014 172.281 182.073 172.43 182.073 172.611V182.787C182.073 182.979 182.014 183.134 181.897 183.251C181.78 183.369 181.62 183.427 181.417 183.427C181.214 183.427 181.054 183.369 180.937 183.251C180.83 183.134 180.777 182.979 180.777 182.787V181.923C180.542 182.414 180.196 182.793 179.737 183.059C179.289 183.326 178.761 183.459 178.153 183.459C177.47 183.459 176.868 183.289 176.345 182.947C175.822 182.606 175.417 182.131 175.129 181.523C174.841 180.905 174.697 180.19 174.697 179.379C174.697 178.579 174.841 177.875 175.129 177.267C175.417 176.659 175.822 176.19 176.345 175.859C176.868 175.529 177.47 175.363 178.153 175.363C178.761 175.363 179.289 175.497 179.737 175.763C180.196 176.03 180.542 176.409 180.777 176.899V172.611C180.777 172.419 180.83 172.27 180.937 172.163C181.054 172.046 181.214 171.987 181.417 171.987ZM178.409 182.387C179.166 182.387 179.748 182.131 180.153 181.619C180.569 181.097 180.777 180.361 180.777 179.411C180.777 178.462 180.569 177.731 180.153 177.219C179.748 176.707 179.166 176.451 178.409 176.451C177.652 176.451 177.06 176.707 176.633 177.219C176.217 177.731 176.009 178.451 176.009 179.379C176.009 180.329 176.217 181.07 176.633 181.603C177.06 182.126 177.652 182.387 178.409 182.387ZM187.657 175.363C189.609 175.363 190.585 176.387 190.585 178.435V182.787C190.585 182.979 190.527 183.134 190.409 183.251C190.303 183.369 190.153 183.427 189.961 183.427C189.769 183.427 189.615 183.369 189.497 183.251C189.38 183.134 189.321 182.979 189.321 182.787V182.019C189.119 182.478 188.809 182.835 188.393 183.091C187.977 183.337 187.497 183.459 186.953 183.459C186.452 183.459 185.988 183.358 185.561 183.155C185.145 182.953 184.815 182.67 184.569 182.307C184.324 181.945 184.201 181.545 184.201 181.107C184.201 180.521 184.351 180.067 184.649 179.747C184.948 179.417 185.439 179.182 186.121 179.043C186.804 178.894 187.753 178.819 188.969 178.819H189.321V178.291C189.321 177.651 189.188 177.182 188.921 176.883C188.665 176.585 188.244 176.435 187.657 176.435C186.932 176.435 186.196 176.633 185.449 177.027C185.161 177.209 184.959 177.299 184.841 177.299C184.713 177.299 184.607 177.251 184.521 177.155C184.436 177.059 184.393 176.937 184.393 176.787C184.393 176.638 184.436 176.51 184.521 176.403C184.617 176.286 184.767 176.169 184.969 176.051C185.343 175.838 185.764 175.673 186.233 175.555C186.713 175.427 187.188 175.363 187.657 175.363ZM187.129 182.435C187.769 182.435 188.292 182.222 188.697 181.795C189.113 181.358 189.321 180.798 189.321 180.115V179.651H189.033C188.095 179.651 187.38 179.694 186.889 179.779C186.399 179.854 186.047 179.987 185.833 180.179C185.631 180.361 185.529 180.633 185.529 180.995C185.529 181.411 185.679 181.758 185.977 182.035C186.287 182.302 186.671 182.435 187.129 182.435ZM195.582 183.459C195.091 183.459 194.622 183.401 194.174 183.283C193.736 183.166 193.347 183.001 193.006 182.787C192.814 182.659 192.675 182.542 192.59 182.435C192.515 182.318 192.478 182.179 192.478 182.019C192.478 181.881 192.515 181.769 192.59 181.683C192.675 181.587 192.782 181.539 192.91 181.539C193.038 181.539 193.224 181.619 193.47 181.779C193.79 181.971 194.104 182.126 194.414 182.243C194.734 182.35 195.128 182.403 195.598 182.403C196.174 182.403 196.622 182.302 196.942 182.099C197.262 181.897 197.422 181.603 197.422 181.219C197.422 180.985 197.363 180.798 197.246 180.659C197.128 180.51 196.926 180.382 196.638 180.275C196.35 180.158 195.928 180.041 195.374 179.923C194.435 179.721 193.763 179.449 193.358 179.107C192.952 178.766 192.75 178.302 192.75 177.715C192.75 177.257 192.878 176.851 193.134 176.499C193.39 176.147 193.742 175.87 194.19 175.667C194.648 175.465 195.166 175.363 195.742 175.363C196.158 175.363 196.558 175.422 196.942 175.539C197.336 175.646 197.683 175.801 197.982 176.003C198.344 176.259 198.526 176.526 198.526 176.803C198.526 176.942 198.483 177.059 198.398 177.155C198.312 177.251 198.211 177.299 198.094 177.299C197.966 177.299 197.774 177.209 197.518 177.027C197.219 176.835 196.936 176.686 196.67 176.579C196.403 176.473 196.072 176.419 195.678 176.419C195.176 176.419 194.771 176.531 194.462 176.755C194.163 176.979 194.014 177.278 194.014 177.651C194.014 177.886 194.067 178.078 194.174 178.227C194.291 178.366 194.478 178.494 194.734 178.611C195 178.718 195.379 178.825 195.87 178.931C196.595 179.091 197.155 179.267 197.55 179.459C197.955 179.651 198.243 179.886 198.414 180.163C198.584 180.441 198.67 180.793 198.67 181.219C198.67 181.891 198.387 182.435 197.822 182.851C197.256 183.257 196.51 183.459 195.582 183.459ZM204.167 182.403C204.541 182.435 204.727 182.606 204.727 182.915C204.727 183.097 204.658 183.235 204.519 183.331C204.391 183.417 204.194 183.449 203.927 183.427L203.495 183.395C202.642 183.331 202.013 183.075 201.607 182.627C201.202 182.179 200.999 181.502 200.999 180.595V176.579H199.927C199.746 176.579 199.602 176.537 199.495 176.451C199.399 176.355 199.351 176.233 199.351 176.083C199.351 175.923 199.399 175.795 199.495 175.699C199.602 175.603 199.746 175.555 199.927 175.555H200.999V173.747C200.999 173.545 201.058 173.39 201.175 173.283C201.293 173.166 201.453 173.107 201.655 173.107C201.847 173.107 202.002 173.166 202.119 173.283C202.237 173.39 202.295 173.545 202.295 173.747V175.555H204.071C204.242 175.555 204.375 175.603 204.471 175.699C204.578 175.795 204.631 175.923 204.631 176.083C204.631 176.233 204.578 176.355 204.471 176.451C204.375 176.537 204.242 176.579 204.071 176.579H202.295V180.659C202.295 181.246 202.413 181.673 202.647 181.939C202.893 182.195 203.255 182.339 203.735 182.371L204.167 182.403ZM209.861 175.395C210.309 175.363 210.533 175.545 210.533 175.939C210.533 176.11 210.485 176.249 210.389 176.355C210.293 176.451 210.127 176.51 209.893 176.531L209.413 176.579C208.698 176.643 208.165 176.899 207.813 177.347C207.471 177.785 207.301 178.302 207.301 178.899V182.787C207.301 183.001 207.242 183.161 207.125 183.267C207.007 183.374 206.853 183.427 206.661 183.427C206.469 183.427 206.309 183.374 206.181 183.267C206.063 183.15 206.005 182.99 206.005 182.787V176.035C206.005 175.833 206.069 175.678 206.197 175.571C206.325 175.454 206.479 175.395 206.661 175.395C206.831 175.395 206.975 175.454 207.093 175.571C207.21 175.678 207.269 175.827 207.269 176.019V176.915C207.493 176.446 207.807 176.089 208.213 175.843C208.629 175.598 209.103 175.454 209.637 175.411L209.861 175.395ZM217.521 181.539C217.638 181.539 217.74 181.587 217.825 181.683C217.91 181.779 217.953 181.902 217.953 182.051C217.953 182.318 217.766 182.563 217.393 182.787C217.009 183.011 216.604 183.182 216.177 183.299C215.75 183.406 215.334 183.459 214.929 183.459C213.724 183.459 212.769 183.102 212.065 182.387C211.372 181.673 211.025 180.686 211.025 179.427C211.025 178.627 211.18 177.923 211.489 177.315C211.798 176.697 212.23 176.217 212.785 175.875C213.35 175.534 213.99 175.363 214.705 175.363C215.718 175.363 216.524 175.694 217.121 176.355C217.718 177.017 218.017 177.913 218.017 179.043C218.017 179.257 217.974 179.411 217.889 179.507C217.804 179.603 217.665 179.651 217.473 179.651H212.321C212.417 181.486 213.286 182.403 214.929 182.403C215.345 182.403 215.702 182.35 216.001 182.243C216.3 182.126 216.62 181.971 216.961 181.779C217.238 181.619 217.425 181.539 217.521 181.539ZM214.721 176.371C214.038 176.371 213.489 176.585 213.073 177.011C212.668 177.438 212.428 178.041 212.353 178.819H216.881C216.86 178.03 216.662 177.427 216.289 177.011C215.916 176.585 215.393 176.371 214.721 176.371ZM227.284 183.459C226.548 183.459 225.897 183.294 225.332 182.963C224.777 182.633 224.345 182.163 224.036 181.555C223.737 180.937 223.588 180.222 223.588 179.411C223.588 178.601 223.737 177.891 224.036 177.283C224.345 176.665 224.777 176.19 225.332 175.859C225.897 175.529 226.548 175.363 227.284 175.363C228.02 175.363 228.67 175.529 229.236 175.859C229.801 176.19 230.233 176.665 230.532 177.283C230.841 177.891 230.996 178.601 230.996 179.411C230.996 180.222 230.841 180.937 230.532 181.555C230.233 182.163 229.801 182.633 229.236 182.963C228.67 183.294 228.02 183.459 227.284 183.459ZM227.284 182.387C228.052 182.387 228.638 182.137 229.044 181.635C229.46 181.123 229.668 180.382 229.668 179.411C229.668 178.462 229.46 177.731 229.044 177.219C228.628 176.697 228.041 176.435 227.284 176.435C226.526 176.435 225.94 176.697 225.524 177.219C225.108 177.731 224.9 178.462 224.9 179.411C224.9 180.371 225.102 181.107 225.508 181.619C225.924 182.131 226.516 182.387 227.284 182.387ZM237.708 183.427C237.516 183.427 237.356 183.374 237.228 183.267C237.11 183.15 237.052 182.99 237.052 182.787V172.627C237.052 172.425 237.11 172.27 237.228 172.163C237.356 172.046 237.516 171.987 237.708 171.987C237.889 171.987 238.038 172.046 238.156 172.163C238.284 172.27 238.348 172.425 238.348 172.627V182.787C238.348 182.99 238.284 183.15 238.156 183.267C238.038 183.374 237.889 183.427 237.708 183.427ZM241.426 183.427C241.234 183.427 241.074 183.374 240.946 183.267C240.829 183.15 240.77 182.99 240.77 182.787V176.035C240.77 175.833 240.829 175.678 240.946 175.571C241.074 175.454 241.234 175.395 241.426 175.395C241.618 175.395 241.773 175.454 241.89 175.571C242.008 175.678 242.066 175.833 242.066 176.035V182.787C242.066 183.001 242.008 183.161 241.89 183.267C241.773 183.374 241.618 183.427 241.426 183.427ZM241.426 173.715C241.17 173.715 240.962 173.641 240.802 173.491C240.642 173.342 240.562 173.145 240.562 172.899C240.562 172.665 240.642 172.473 240.802 172.323C240.962 172.174 241.17 172.099 241.426 172.099C241.682 172.099 241.89 172.174 242.05 172.323C242.21 172.473 242.29 172.665 242.29 172.899C242.29 173.145 242.21 173.342 242.05 173.491C241.89 173.641 241.682 173.715 241.426 173.715ZM250.105 175.795C250.222 175.539 250.409 175.411 250.665 175.411C250.825 175.411 250.969 175.465 251.097 175.571C251.225 175.678 251.289 175.811 251.289 175.971C251.289 176.067 251.268 176.153 251.225 176.227L248.105 182.947C248.041 183.086 247.945 183.198 247.817 183.283C247.689 183.358 247.55 183.395 247.401 183.395C247.262 183.395 247.129 183.358 247.001 183.283C246.873 183.198 246.772 183.086 246.697 182.947L243.593 176.227C243.55 176.153 243.529 176.073 243.529 175.987C243.529 175.827 243.598 175.689 243.737 175.571C243.886 175.454 244.046 175.395 244.217 175.395C244.324 175.395 244.425 175.427 244.521 175.491C244.628 175.555 244.708 175.646 244.761 175.763L247.433 181.763L250.105 175.795ZM256.564 175.395C257.012 175.363 257.236 175.545 257.236 175.939C257.236 176.11 257.188 176.249 257.092 176.355C256.996 176.451 256.83 176.51 256.596 176.531L256.116 176.579C255.401 176.643 254.868 176.899 254.516 177.347C254.174 177.785 254.004 178.302 254.004 178.899V182.787C254.004 183.001 253.945 183.161 253.828 183.267C253.71 183.374 253.556 183.427 253.364 183.427C253.172 183.427 253.012 183.374 252.884 183.267C252.766 183.15 252.708 182.99 252.708 182.787V176.035C252.708 175.833 252.772 175.678 252.9 175.571C253.028 175.454 253.182 175.395 253.364 175.395C253.534 175.395 253.678 175.454 253.796 175.571C253.913 175.678 253.972 175.827 253.972 176.019V176.915C254.196 176.446 254.51 176.089 254.916 175.843C255.332 175.598 255.806 175.454 256.34 175.411L256.564 175.395ZM261.424 183.459C260.688 183.459 260.038 183.294 259.472 182.963C258.918 182.633 258.486 182.163 258.176 181.555C257.878 180.937 257.728 180.222 257.728 179.411C257.728 178.601 257.878 177.891 258.176 177.283C258.486 176.665 258.918 176.19 259.472 175.859C260.038 175.529 260.688 175.363 261.424 175.363C262.16 175.363 262.811 175.529 263.376 175.859C263.942 176.19 264.374 176.665 264.672 177.283C264.982 177.891 265.136 178.601 265.136 179.411C265.136 180.222 264.982 180.937 264.672 181.555C264.374 182.163 263.942 182.633 263.376 182.963C262.811 183.294 262.16 183.459 261.424 183.459ZM261.424 182.387C262.192 182.387 262.779 182.137 263.184 181.635C263.6 181.123 263.808 180.382 263.808 179.411C263.808 178.462 263.6 177.731 263.184 177.219C262.768 176.697 262.182 176.435 261.424 176.435C260.667 176.435 260.08 176.697 259.664 177.219C259.248 177.731 259.04 178.462 259.04 179.411C259.04 180.371 259.243 181.107 259.648 181.619C260.064 182.131 260.656 182.387 261.424 182.387ZM275.112 175.363C276.979 175.363 277.912 176.393 277.912 178.451V182.787C277.912 182.99 277.854 183.15 277.736 183.267C277.63 183.374 277.475 183.427 277.272 183.427C277.07 183.427 276.91 183.374 276.792 183.267C276.675 183.15 276.616 182.99 276.616 182.787V178.531C276.616 177.806 276.472 177.278 276.184 176.947C275.907 176.617 275.459 176.451 274.84 176.451C274.126 176.451 273.555 176.67 273.128 177.107C272.702 177.545 272.488 178.137 272.488 178.883V182.787C272.488 182.99 272.43 183.15 272.312 183.267C272.206 183.374 272.051 183.427 271.848 183.427C271.646 183.427 271.486 183.374 271.368 183.267C271.251 183.15 271.192 182.99 271.192 182.787V176.035C271.192 175.843 271.251 175.689 271.368 175.571C271.486 175.454 271.646 175.395 271.848 175.395C272.04 175.395 272.19 175.454 272.296 175.571C272.414 175.689 272.472 175.838 272.472 176.019V176.835C272.728 176.355 273.086 175.993 273.544 175.747C274.003 175.491 274.526 175.363 275.112 175.363ZM283.518 183.459C282.782 183.459 282.131 183.294 281.566 182.963C281.011 182.633 280.579 182.163 280.27 181.555C279.971 180.937 279.822 180.222 279.822 179.411C279.822 178.601 279.971 177.891 280.27 177.283C280.579 176.665 281.011 176.19 281.566 175.859C282.131 175.529 282.782 175.363 283.518 175.363C284.254 175.363 284.905 175.529 285.47 175.859C286.035 176.19 286.467 176.665 286.766 177.283C287.075 177.891 287.23 178.601 287.23 179.411C287.23 180.222 287.075 180.937 286.766 181.555C286.467 182.163 286.035 182.633 285.47 182.963C284.905 183.294 284.254 183.459 283.518 183.459ZM283.518 182.387C284.286 182.387 284.873 182.137 285.278 181.635C285.694 181.123 285.902 180.382 285.902 179.411C285.902 178.462 285.694 177.731 285.278 177.219C284.862 176.697 284.275 176.435 283.518 176.435C282.761 176.435 282.174 176.697 281.758 177.219C281.342 177.731 281.134 178.462 281.134 179.411C281.134 180.371 281.337 181.107 281.742 181.619C282.158 182.131 282.75 182.387 283.518 182.387ZM82.4481 197.363C83.1308 197.363 83.7335 197.529 84.2561 197.859C84.7788 198.19 85.1841 198.659 85.4721 199.267C85.7601 199.875 85.9041 200.579 85.9041 201.379C85.9041 202.19 85.7601 202.905 85.4721 203.523C85.1841 204.131 84.7788 204.606 84.2561 204.947C83.7335 205.289 83.1308 205.459 82.4481 205.459C81.8401 205.459 81.3068 205.326 80.8481 205.059C80.4001 204.793 80.0588 204.414 79.8241 203.923V204.787C79.8241 204.979 79.7655 205.134 79.6481 205.251C79.5415 205.369 79.3868 205.427 79.1841 205.427C78.9815 205.427 78.8215 205.369 78.7041 205.251C78.5868 205.134 78.5281 204.979 78.5281 204.787V194.611C78.5281 194.43 78.5868 194.281 78.7041 194.163C78.8215 194.046 78.9815 193.987 79.1841 193.987C79.3868 193.987 79.5415 194.046 79.6481 194.163C79.7655 194.27 79.8241 194.419 79.8241 194.611V198.899C80.0588 198.409 80.4001 198.03 80.8481 197.763C81.3068 197.497 81.8401 197.363 82.4481 197.363ZM82.1921 204.387C82.9495 204.387 83.5361 204.126 83.9521 203.603C84.3681 203.07 84.5761 202.329 84.5761 201.379C84.5761 200.451 84.3681 199.731 83.9521 199.219C83.5361 198.707 82.9495 198.451 82.1921 198.451C81.4348 198.451 80.8481 198.707 80.4321 199.219C80.0268 199.731 79.8241 200.462 79.8241 201.411C79.8241 202.361 80.0268 203.097 80.4321 203.619C80.8481 204.131 81.4348 204.387 82.1921 204.387ZM91.0726 205.459C90.3366 205.459 89.686 205.294 89.1206 204.963C88.566 204.633 88.134 204.163 87.8246 203.555C87.526 202.937 87.3766 202.222 87.3766 201.411C87.3766 200.601 87.526 199.891 87.8246 199.283C88.134 198.665 88.566 198.19 89.1206 197.859C89.686 197.529 90.3366 197.363 91.0726 197.363C91.8086 197.363 92.4593 197.529 93.0246 197.859C93.59 198.19 94.022 198.665 94.3206 199.283C94.63 199.891 94.7846 200.601 94.7846 201.411C94.7846 202.222 94.63 202.937 94.3206 203.555C94.022 204.163 93.59 204.633 93.0246 204.963C92.4593 205.294 91.8086 205.459 91.0726 205.459ZM91.0726 204.387C91.8406 204.387 92.4273 204.137 92.8326 203.635C93.2486 203.123 93.4566 202.382 93.4566 201.411C93.4566 200.462 93.2486 199.731 92.8326 199.219C92.4166 198.697 91.83 198.435 91.0726 198.435C90.3153 198.435 89.7286 198.697 89.3126 199.219C88.8966 199.731 88.6886 200.462 88.6886 201.411C88.6886 202.371 88.8913 203.107 89.2966 203.619C89.7126 204.131 90.3046 204.387 91.0726 204.387ZM100.3 204.403C100.673 204.435 100.86 204.606 100.86 204.915C100.86 205.097 100.791 205.235 100.652 205.331C100.524 205.417 100.327 205.449 100.06 205.427L99.628 205.395C98.7747 205.331 98.1453 205.075 97.74 204.627C97.3347 204.179 97.132 203.502 97.132 202.595V198.579H96.06C95.8787 198.579 95.7347 198.537 95.628 198.451C95.532 198.355 95.484 198.233 95.484 198.083C95.484 197.923 95.532 197.795 95.628 197.699C95.7347 197.603 95.8787 197.555 96.06 197.555H97.132V195.747C97.132 195.545 97.1907 195.39 97.308 195.283C97.4253 195.166 97.5853 195.107 97.788 195.107C97.98 195.107 98.1347 195.166 98.252 195.283C98.3693 195.39 98.428 195.545 98.428 195.747V197.555H100.204C100.375 197.555 100.508 197.603 100.604 197.699C100.711 197.795 100.764 197.923 100.764 198.083C100.764 198.233 100.711 198.355 100.604 198.451C100.508 198.537 100.375 198.579 100.204 198.579H98.428V202.659C98.428 203.246 98.5453 203.673 98.78 203.939C99.0253 204.195 99.388 204.339 99.868 204.371L100.3 204.403ZM105.322 197.363C107.274 197.363 108.25 198.387 108.25 200.435V204.787C108.25 204.979 108.191 205.134 108.074 205.251C107.967 205.369 107.818 205.427 107.626 205.427C107.434 205.427 107.279 205.369 107.162 205.251C107.044 205.134 106.986 204.979 106.986 204.787V204.019C106.783 204.478 106.474 204.835 106.058 205.091C105.642 205.337 105.162 205.459 104.618 205.459C104.116 205.459 103.652 205.358 103.226 205.155C102.81 204.953 102.479 204.67 102.234 204.307C101.988 203.945 101.866 203.545 101.866 203.107C101.866 202.521 102.015 202.067 102.314 201.747C102.612 201.417 103.103 201.182 103.786 201.043C104.468 200.894 105.418 200.819 106.634 200.819H106.986V200.291C106.986 199.651 106.852 199.182 106.586 198.883C106.33 198.585 105.908 198.435 105.322 198.435C104.596 198.435 103.86 198.633 103.114 199.027C102.826 199.209 102.623 199.299 102.506 199.299C102.378 199.299 102.271 199.251 102.186 199.155C102.1 199.059 102.058 198.937 102.058 198.787C102.058 198.638 102.1 198.51 102.186 198.403C102.282 198.286 102.431 198.169 102.634 198.051C103.007 197.838 103.428 197.673 103.898 197.555C104.378 197.427 104.852 197.363 105.322 197.363ZM104.794 204.435C105.434 204.435 105.956 204.222 106.362 203.795C106.778 203.358 106.986 202.798 106.986 202.115V201.651H106.698C105.759 201.651 105.044 201.694 104.554 201.779C104.063 201.854 103.711 201.987 103.498 202.179C103.295 202.361 103.194 202.633 103.194 202.995C103.194 203.411 103.343 203.758 103.642 204.035C103.951 204.302 104.335 204.435 104.794 204.435ZM106.458 195.907C106.255 195.907 106.058 195.859 105.866 195.763C105.674 195.667 105.444 195.529 105.178 195.347C104.943 195.198 104.756 195.091 104.618 195.027C104.479 194.953 104.351 194.915 104.234 194.915C104.052 194.915 103.908 194.963 103.802 195.059C103.706 195.155 103.61 195.289 103.514 195.459C103.439 195.577 103.375 195.667 103.322 195.731C103.268 195.785 103.204 195.811 103.13 195.811C103.034 195.811 102.954 195.774 102.89 195.699C102.826 195.625 102.794 195.529 102.794 195.411C102.794 195.219 102.852 195.006 102.97 194.771C103.087 194.537 103.252 194.334 103.466 194.163C103.679 193.993 103.919 193.907 104.186 193.907C104.388 193.907 104.586 193.955 104.778 194.051C104.97 194.147 105.199 194.286 105.466 194.467C105.7 194.617 105.887 194.729 106.026 194.803C106.164 194.867 106.292 194.899 106.41 194.899C106.58 194.899 106.714 194.851 106.81 194.755C106.916 194.659 107.023 194.526 107.13 194.355C107.204 194.227 107.268 194.137 107.322 194.083C107.375 194.019 107.439 193.987 107.514 193.987C107.61 193.987 107.69 194.03 107.754 194.115C107.818 194.19 107.85 194.286 107.85 194.403C107.85 194.585 107.791 194.798 107.674 195.043C107.556 195.278 107.391 195.481 107.178 195.651C106.964 195.822 106.724 195.907 106.458 195.907ZM113.854 205.459C113.118 205.459 112.467 205.294 111.902 204.963C111.347 204.633 110.915 204.163 110.606 203.555C110.307 202.937 110.158 202.222 110.158 201.411C110.158 200.601 110.307 199.891 110.606 199.283C110.915 198.665 111.347 198.19 111.902 197.859C112.467 197.529 113.118 197.363 113.854 197.363C114.59 197.363 115.241 197.529 115.806 197.859C116.371 198.19 116.803 198.665 117.102 199.283C117.411 199.891 117.566 200.601 117.566 201.411C117.566 202.222 117.411 202.937 117.102 203.555C116.803 204.163 116.371 204.633 115.806 204.963C115.241 205.294 114.59 205.459 113.854 205.459ZM113.854 204.387C114.622 204.387 115.209 204.137 115.614 203.635C116.03 203.123 116.238 202.382 116.238 201.411C116.238 200.462 116.03 199.731 115.614 199.219C115.198 198.697 114.611 198.435 113.854 198.435C113.097 198.435 112.51 198.697 112.094 199.219C111.678 199.731 111.47 200.462 111.47 201.411C111.47 202.371 111.673 203.107 112.078 203.619C112.494 204.131 113.086 204.387 113.854 204.387ZM126.838 205.459C126.113 205.459 125.467 205.294 124.902 204.963C124.347 204.633 123.915 204.163 123.606 203.555C123.307 202.947 123.158 202.243 123.158 201.443C123.158 200.643 123.313 199.934 123.622 199.315C123.942 198.697 124.385 198.217 124.95 197.875C125.515 197.534 126.166 197.363 126.902 197.363C127.307 197.363 127.707 197.422 128.102 197.539C128.507 197.646 128.859 197.806 129.158 198.019C129.35 198.147 129.483 198.275 129.558 198.403C129.643 198.521 129.686 198.654 129.686 198.803C129.686 198.953 129.643 199.075 129.558 199.171C129.483 199.267 129.382 199.315 129.254 199.315C129.179 199.315 129.099 199.294 129.014 199.251C128.929 199.209 128.854 199.166 128.79 199.123C128.737 199.081 128.699 199.054 128.678 199.043C128.401 198.862 128.134 198.718 127.878 198.611C127.633 198.505 127.329 198.451 126.966 198.451C126.187 198.451 125.579 198.718 125.142 199.251C124.715 199.774 124.502 200.505 124.502 201.443C124.502 202.382 124.715 203.107 125.142 203.619C125.579 204.131 126.187 204.387 126.966 204.387C127.329 204.387 127.638 204.334 127.894 204.227C128.161 204.121 128.427 203.977 128.694 203.795C128.811 203.721 128.923 203.657 129.03 203.603C129.137 203.55 129.227 203.523 129.302 203.523C129.419 203.523 129.515 203.571 129.59 203.667C129.675 203.763 129.718 203.886 129.718 204.035C129.718 204.174 129.681 204.302 129.606 204.419C129.531 204.526 129.393 204.649 129.19 204.787C128.891 204.99 128.529 205.155 128.102 205.283C127.686 205.401 127.265 205.459 126.838 205.459ZM134.462 197.363C136.414 197.363 137.39 198.387 137.39 200.435V204.787C137.39 204.979 137.331 205.134 137.214 205.251C137.107 205.369 136.958 205.427 136.766 205.427C136.574 205.427 136.419 205.369 136.302 205.251C136.185 205.134 136.126 204.979 136.126 204.787V204.019C135.923 204.478 135.614 204.835 135.198 205.091C134.782 205.337 134.302 205.459 133.758 205.459C133.257 205.459 132.793 205.358 132.366 205.155C131.95 204.953 131.619 204.67 131.374 204.307C131.129 203.945 131.006 203.545 131.006 203.107C131.006 202.521 131.155 202.067 131.454 201.747C131.753 201.417 132.243 201.182 132.926 201.043C133.609 200.894 134.558 200.819 135.774 200.819H136.126V200.291C136.126 199.651 135.993 199.182 135.726 198.883C135.47 198.585 135.049 198.435 134.462 198.435C133.737 198.435 133.001 198.633 132.254 199.027C131.966 199.209 131.763 199.299 131.646 199.299C131.518 199.299 131.411 199.251 131.326 199.155C131.241 199.059 131.198 198.937 131.198 198.787C131.198 198.638 131.241 198.51 131.326 198.403C131.422 198.286 131.571 198.169 131.774 198.051C132.147 197.838 132.569 197.673 133.038 197.555C133.518 197.427 133.993 197.363 134.462 197.363ZM133.934 204.435C134.574 204.435 135.097 204.222 135.502 203.795C135.918 203.358 136.126 202.798 136.126 202.115V201.651H135.838C134.899 201.651 134.185 201.694 133.694 201.779C133.203 201.854 132.851 201.987 132.638 202.179C132.435 202.361 132.334 202.633 132.334 202.995C132.334 203.411 132.483 203.758 132.782 204.035C133.091 204.302 133.475 204.435 133.934 204.435ZM146.019 193.987C146.221 193.987 146.381 194.046 146.499 194.163C146.616 194.281 146.675 194.43 146.675 194.611V204.787C146.675 204.979 146.616 205.134 146.499 205.251C146.381 205.369 146.221 205.427 146.019 205.427C145.816 205.427 145.656 205.369 145.539 205.251C145.432 205.134 145.379 204.979 145.379 204.787V203.923C145.144 204.414 144.797 204.793 144.339 205.059C143.891 205.326 143.363 205.459 142.755 205.459C142.072 205.459 141.469 205.289 140.947 204.947C140.424 204.606 140.019 204.131 139.731 203.523C139.443 202.905 139.299 202.19 139.299 201.379C139.299 200.579 139.443 199.875 139.731 199.267C140.019 198.659 140.424 198.19 140.947 197.859C141.469 197.529 142.072 197.363 142.755 197.363C143.363 197.363 143.891 197.497 144.339 197.763C144.797 198.03 145.144 198.409 145.379 198.899V194.611C145.379 194.419 145.432 194.27 145.539 194.163C145.656 194.046 145.816 193.987 146.019 193.987ZM143.011 204.387C143.768 204.387 144.349 204.131 144.755 203.619C145.171 203.097 145.379 202.361 145.379 201.411C145.379 200.462 145.171 199.731 144.755 199.219C144.349 198.707 143.768 198.451 143.011 198.451C142.253 198.451 141.661 198.707 141.235 199.219C140.819 199.731 140.611 200.451 140.611 201.379C140.611 202.329 140.819 203.07 141.235 203.603C141.661 204.126 142.253 204.387 143.011 204.387ZM152.259 197.363C154.211 197.363 155.187 198.387 155.187 200.435V204.787C155.187 204.979 155.128 205.134 155.011 205.251C154.904 205.369 154.755 205.427 154.563 205.427C154.371 205.427 154.216 205.369 154.099 205.251C153.982 205.134 153.923 204.979 153.923 204.787V204.019C153.72 204.478 153.411 204.835 152.995 205.091C152.579 205.337 152.099 205.459 151.555 205.459C151.054 205.459 150.59 205.358 150.163 205.155C149.747 204.953 149.416 204.67 149.171 204.307C148.926 203.945 148.803 203.545 148.803 203.107C148.803 202.521 148.952 202.067 149.251 201.747C149.55 201.417 150.04 201.182 150.723 201.043C151.406 200.894 152.355 200.819 153.571 200.819H153.923V200.291C153.923 199.651 153.79 199.182 153.523 198.883C153.267 198.585 152.846 198.435 152.259 198.435C151.534 198.435 150.798 198.633 150.051 199.027C149.763 199.209 149.56 199.299 149.443 199.299C149.315 199.299 149.208 199.251 149.123 199.155C149.038 199.059 148.995 198.937 148.995 198.787C148.995 198.638 149.038 198.51 149.123 198.403C149.219 198.286 149.368 198.169 149.571 198.051C149.944 197.838 150.366 197.673 150.835 197.555C151.315 197.427 151.79 197.363 152.259 197.363ZM151.731 204.435C152.371 204.435 152.894 204.222 153.299 203.795C153.715 203.358 153.923 202.798 153.923 202.115V201.651H153.635C152.696 201.651 151.982 201.694 151.491 201.779C151 201.854 150.648 201.987 150.435 202.179C150.232 202.361 150.131 202.633 150.131 202.995C150.131 203.411 150.28 203.758 150.579 204.035C150.888 204.302 151.272 204.435 151.731 204.435ZM160.183 205.459C159.693 205.459 159.223 205.401 158.775 205.283C158.338 205.166 157.949 205.001 157.607 204.787C157.415 204.659 157.277 204.542 157.191 204.435C157.117 204.318 157.079 204.179 157.079 204.019C157.079 203.881 157.117 203.769 157.191 203.683C157.277 203.587 157.383 203.539 157.511 203.539C157.639 203.539 157.826 203.619 158.071 203.779C158.391 203.971 158.706 204.126 159.015 204.243C159.335 204.35 159.73 204.403 160.199 204.403C160.775 204.403 161.223 204.302 161.543 204.099C161.863 203.897 162.023 203.603 162.023 203.219C162.023 202.985 161.965 202.798 161.847 202.659C161.73 202.51 161.527 202.382 161.239 202.275C160.951 202.158 160.53 202.041 159.975 201.923C159.037 201.721 158.365 201.449 157.959 201.107C157.554 200.766 157.351 200.302 157.351 199.715C157.351 199.257 157.479 198.851 157.735 198.499C157.991 198.147 158.343 197.87 158.791 197.667C159.25 197.465 159.767 197.363 160.343 197.363C160.759 197.363 161.159 197.422 161.543 197.539C161.938 197.646 162.285 197.801 162.583 198.003C162.946 198.259 163.127 198.526 163.127 198.803C163.127 198.942 163.085 199.059 162.999 199.155C162.914 199.251 162.813 199.299 162.695 199.299C162.567 199.299 162.375 199.209 162.119 199.027C161.821 198.835 161.538 198.686 161.271 198.579C161.005 198.473 160.674 198.419 160.279 198.419C159.778 198.419 159.373 198.531 159.063 198.755C158.765 198.979 158.615 199.278 158.615 199.651C158.615 199.886 158.669 200.078 158.775 200.227C158.893 200.366 159.079 200.494 159.335 200.611C159.602 200.718 159.981 200.825 160.471 200.931C161.197 201.091 161.757 201.267 162.151 201.459C162.557 201.651 162.845 201.886 163.015 202.163C163.186 202.441 163.271 202.793 163.271 203.219C163.271 203.891 162.989 204.435 162.423 204.851C161.858 205.257 161.111 205.459 160.183 205.459ZM168.769 204.403C169.142 204.435 169.329 204.606 169.329 204.915C169.329 205.097 169.259 205.235 169.121 205.331C168.993 205.417 168.795 205.449 168.529 205.427L168.097 205.395C167.243 205.331 166.614 205.075 166.209 204.627C165.803 204.179 165.601 203.502 165.601 202.595V198.579H164.529C164.347 198.579 164.203 198.537 164.097 198.451C164.001 198.355 163.953 198.233 163.953 198.083C163.953 197.923 164.001 197.795 164.097 197.699C164.203 197.603 164.347 197.555 164.529 197.555H165.601V195.747C165.601 195.545 165.659 195.39 165.777 195.283C165.894 195.166 166.054 195.107 166.257 195.107C166.449 195.107 166.603 195.166 166.721 195.283C166.838 195.39 166.897 195.545 166.897 195.747V197.555H168.673C168.843 197.555 168.977 197.603 169.073 197.699C169.179 197.795 169.233 197.923 169.233 198.083C169.233 198.233 169.179 198.355 169.073 198.451C168.977 198.537 168.843 198.579 168.673 198.579H166.897V202.659C166.897 203.246 167.014 203.673 167.249 203.939C167.494 204.195 167.857 204.339 168.337 204.371L168.769 204.403ZM173.79 197.363C175.742 197.363 176.718 198.387 176.718 200.435V204.787C176.718 204.979 176.66 205.134 176.542 205.251C176.436 205.369 176.286 205.427 176.094 205.427C175.902 205.427 175.748 205.369 175.63 205.251C175.513 205.134 175.454 204.979 175.454 204.787V204.019C175.252 204.478 174.942 204.835 174.526 205.091C174.11 205.337 173.63 205.459 173.086 205.459C172.585 205.459 172.121 205.358 171.694 205.155C171.278 204.953 170.948 204.67 170.702 204.307C170.457 203.945 170.334 203.545 170.334 203.107C170.334 202.521 170.484 202.067 170.782 201.747C171.081 201.417 171.572 201.182 172.254 201.043C172.937 200.894 173.886 200.819 175.102 200.819H175.454V200.291C175.454 199.651 175.321 199.182 175.054 198.883C174.798 198.585 174.377 198.435 173.79 198.435C173.065 198.435 172.329 198.633 171.582 199.027C171.294 199.209 171.092 199.299 170.974 199.299C170.846 199.299 170.74 199.251 170.654 199.155C170.569 199.059 170.526 198.937 170.526 198.787C170.526 198.638 170.569 198.51 170.654 198.403C170.75 198.286 170.9 198.169 171.102 198.051C171.476 197.838 171.897 197.673 172.366 197.555C172.846 197.427 173.321 197.363 173.79 197.363ZM173.262 204.435C173.902 204.435 174.425 204.222 174.83 203.795C175.246 203.358 175.454 202.798 175.454 202.115V201.651H175.166C174.228 201.651 173.513 201.694 173.022 201.779C172.532 201.854 172.18 201.987 171.966 202.179C171.764 202.361 171.662 202.633 171.662 202.995C171.662 203.411 171.812 203.758 172.11 204.035C172.42 204.302 172.804 204.435 173.262 204.435ZM182.947 197.395C183.395 197.363 183.619 197.545 183.619 197.939C183.619 198.11 183.571 198.249 183.475 198.355C183.379 198.451 183.213 198.51 182.979 198.531L182.499 198.579C181.784 198.643 181.251 198.899 180.899 199.347C180.557 199.785 180.387 200.302 180.387 200.899V204.787C180.387 205.001 180.328 205.161 180.211 205.267C180.093 205.374 179.939 205.427 179.747 205.427C179.555 205.427 179.395 205.374 179.267 205.267C179.149 205.15 179.091 204.99 179.091 204.787V198.035C179.091 197.833 179.155 197.678 179.283 197.571C179.411 197.454 179.565 197.395 179.747 197.395C179.917 197.395 180.061 197.454 180.179 197.571C180.296 197.678 180.355 197.827 180.355 198.019V198.915C180.579 198.446 180.893 198.089 181.299 197.843C181.715 197.598 182.189 197.454 182.723 197.411L182.947 197.395ZM189.512 205.427C189.32 205.427 189.16 205.374 189.032 205.267C188.915 205.15 188.856 204.99 188.856 204.787V194.627C188.856 194.425 188.915 194.27 189.032 194.163C189.16 194.046 189.32 193.987 189.512 193.987C189.694 193.987 189.843 194.046 189.96 194.163C190.088 194.27 190.152 194.425 190.152 194.627V204.787C190.152 204.99 190.088 205.15 189.96 205.267C189.843 205.374 189.694 205.427 189.512 205.427ZM193.231 205.427C193.039 205.427 192.879 205.374 192.751 205.267C192.634 205.15 192.575 204.99 192.575 204.787V198.035C192.575 197.833 192.634 197.678 192.751 197.571C192.879 197.454 193.039 197.395 193.231 197.395C193.423 197.395 193.578 197.454 193.695 197.571C193.812 197.678 193.871 197.833 193.871 198.035V204.787C193.871 205.001 193.812 205.161 193.695 205.267C193.578 205.374 193.423 205.427 193.231 205.427ZM193.231 195.715C192.975 195.715 192.767 195.641 192.607 195.491C192.447 195.342 192.367 195.145 192.367 194.899C192.367 194.665 192.447 194.473 192.607 194.323C192.767 194.174 192.975 194.099 193.231 194.099C193.487 194.099 193.695 194.174 193.855 194.323C194.015 194.473 194.095 194.665 194.095 194.899C194.095 195.145 194.015 195.342 193.855 195.491C193.695 195.641 193.487 195.715 193.231 195.715ZM201.91 197.795C202.027 197.539 202.214 197.411 202.47 197.411C202.63 197.411 202.774 197.465 202.902 197.571C203.03 197.678 203.094 197.811 203.094 197.971C203.094 198.067 203.072 198.153 203.03 198.227L199.91 204.947C199.846 205.086 199.75 205.198 199.622 205.283C199.494 205.358 199.355 205.395 199.206 205.395C199.067 205.395 198.934 205.358 198.806 205.283C198.678 205.198 198.576 205.086 198.502 204.947L195.398 198.227C195.355 198.153 195.334 198.073 195.334 197.987C195.334 197.827 195.403 197.689 195.542 197.571C195.691 197.454 195.851 197.395 196.022 197.395C196.128 197.395 196.23 197.427 196.326 197.491C196.432 197.555 196.512 197.646 196.566 197.763L199.238 203.763L201.91 197.795ZM208.369 197.395C208.817 197.363 209.041 197.545 209.041 197.939C209.041 198.11 208.993 198.249 208.897 198.355C208.801 198.451 208.635 198.51 208.401 198.531L207.921 198.579C207.206 198.643 206.673 198.899 206.321 199.347C205.979 199.785 205.809 200.302 205.809 200.899V204.787C205.809 205.001 205.75 205.161 205.633 205.267C205.515 205.374 205.361 205.427 205.169 205.427C204.977 205.427 204.817 205.374 204.689 205.267C204.571 205.15 204.513 204.99 204.513 204.787V198.035C204.513 197.833 204.577 197.678 204.705 197.571C204.833 197.454 204.987 197.395 205.169 197.395C205.339 197.395 205.483 197.454 205.601 197.571C205.718 197.678 205.777 197.827 205.777 198.019V198.915C206.001 198.446 206.315 198.089 206.721 197.843C207.137 197.598 207.611 197.454 208.145 197.411L208.369 197.395ZM213.229 205.459C212.493 205.459 211.842 205.294 211.277 204.963C210.722 204.633 210.29 204.163 209.981 203.555C209.682 202.937 209.533 202.222 209.533 201.411C209.533 200.601 209.682 199.891 209.981 199.283C210.29 198.665 210.722 198.19 211.277 197.859C211.842 197.529 212.493 197.363 213.229 197.363C213.965 197.363 214.616 197.529 215.181 197.859C215.746 198.19 216.178 198.665 216.477 199.283C216.786 199.891 216.941 200.601 216.941 201.411C216.941 202.222 216.786 202.937 216.477 203.555C216.178 204.163 215.746 204.633 215.181 204.963C214.616 205.294 213.965 205.459 213.229 205.459ZM213.229 204.387C213.997 204.387 214.584 204.137 214.989 203.635C215.405 203.123 215.613 202.382 215.613 201.411C215.613 200.462 215.405 199.731 214.989 199.219C214.573 198.697 213.986 198.435 213.229 198.435C212.472 198.435 211.885 198.697 211.469 199.219C211.053 199.731 210.845 200.462 210.845 201.411C210.845 202.371 211.048 203.107 211.453 203.619C211.869 204.131 212.461 204.387 213.229 204.387Z" fill="#9D9D9D"/>
<defs>
<linearGradient id="paint0_linear" x1="147.048" y1="108.426" x2="127.304" y2="16.0948" gradientUnits="userSpaceOnUse">
<stop stop-color="#808080" stop-opacity="0.25"/>
<stop offset="0.54" stop-color="#808080" stop-opacity="0.12"/>
<stop offset="1" stop-color="#808080" stop-opacity="0.1"/>
</linearGradient>
<linearGradient id="paint1_linear" x1="17909.3" y1="-2313.79" x2="17826.6" y2="-2700.79" gradientUnits="userSpaceOnUse">
<stop stop-color="#808080" stop-opacity="0.25"/>
<stop offset="0.54" stop-color="#808080" stop-opacity="0.12"/>
<stop offset="1" stop-color="#808080" stop-opacity="0.1"/>
</linearGradient>
<linearGradient id="paint2_linear" x1="5286.86" y1="263.916" x2="5171.4" y2="-275.979" gradientUnits="userSpaceOnUse">
<stop stop-color="#808080" stop-opacity="0.25"/>
<stop offset="0.54" stop-color="#808080" stop-opacity="0.12"/>
<stop offset="1" stop-color="#808080" stop-opacity="0.1"/>
</linearGradient>
<linearGradient id="paint3_linear" x1="32784.8" y1="67098.2" x2="32784.8" y2="12021.3" gradientUnits="userSpaceOnUse">
<stop stop-color="#808080" stop-opacity="0.25"/>
<stop offset="0.54" stop-color="#808080" stop-opacity="0.12"/>
<stop offset="1" stop-color="#808080" stop-opacity="0.1"/>
</linearGradient>
<linearGradient id="paint4_linear" x1="15949.8" y1="1266.58" x2="15949.8" y2="870.895" gradientUnits="userSpaceOnUse">
<stop stop-color="#808080" stop-opacity="0.25"/>
<stop offset="0.54" stop-color="#808080" stop-opacity="0.12"/>
<stop offset="1" stop-color="#808080" stop-opacity="0.1"/>
</linearGradient>
<linearGradient id="paint5_linear" x1="6333.93" y1="1677.49" x2="6333.93" y2="1124.85" gradientUnits="userSpaceOnUse">
<stop stop-color="#808080" stop-opacity="0.25"/>
<stop offset="0.54" stop-color="#808080" stop-opacity="0.12"/>
<stop offset="1" stop-color="#808080" stop-opacity="0.1"/>
</linearGradient>
<clipPath id="clip0">
<rect width="45.9031" height="45.9031" fill="white" transform="translate(133.638 44.5397)"/>
</clipPath>
</defs>
</svg>
