<svg width="186" height="26" viewBox="0 0 186 26" fill="none" xmlns="http://www.w3.org/2000/svg">
<path d="M27.4062 14.4531L30.9219 17.9219L15.3125 25.375C15.3125 25.375 13.25 26.3125 12.2656 24.8125C8.42186 18.8125 27.4062 14.4531 27.4062 14.4531Z" fill="#2C4396"/>
<path d="M14.9375 21.0156C14.9375 21.0156 11.9375 22.0469 12.5 24.0625C13.0625 26.125 15.4531 24.8594 15.4531 24.8594L30.2656 17.9687C30.2656 17.9687 29.4219 15.7656 30.9219 14.3125L14.9375 21.0156Z" fill="#D9E3E8"/>
<path d="M17.4219 0.34375L31.625 14.1719L14.8438 20.7344L4.0625 3.95312L17.4219 0.34375Z" fill="#2D5DB9"/>
<path d="M30.2187 15.8125L20.3281 19.8438L30.0781 15.3906L30.2187 15.8125Z" fill="#94989B"/>
<path d="M30.0781 17.0312L19.5312 21.3906L29.8906 16.5625L30.0781 17.0312Z" fill="#94989B"/>
<path d="M30.1719 17.6875L16.7188 23.5469L29.9844 17.2656L30.1719 17.6875Z" fill="#94989B"/>
<path d="M12.2656 24.8126C10.625 21.3907 14.8438 20.7813 14.8438 20.7813L4.0625 3.95318C4.0625 3.95318 1.625 3.90631 1.625 6.43756C1.625 7.46881 2.09375 8.26568 2.09375 8.26568L12.2656 24.8126Z" fill="#2D5DB9"/>
<path d="M9.84375 3.48438L12.5625 6.39062L2.39062 10.0469L0 6.34375L9.84375 3.48438Z" fill="white"/>
<path d="M43.5703 10.7656H45.7969C46.2396 10.7656 46.6016 10.6797 46.8828 10.5078C47.2786 10.2578 47.4766 9.95312 47.4766 9.59375V8.78125C47.4766 8.34375 47.2682 8.03906 46.8516 7.86719C46.4349 7.69531 46.0833 7.60938 45.7969 7.60938H43.5703V10.7656ZM43.5703 16.5938H45.7969C46.3177 16.5938 46.7969 16.5078 47.2344 16.3359C47.8646 16.0911 48.1797 15.7865 48.1797 15.4219V13.3438C48.1797 12.9844 47.8646 12.6797 47.2344 12.4297C46.7969 12.2578 46.3177 12.1719 45.7969 12.1719H43.5703V16.5938ZM42.0078 18V6.59375L42.8359 6.20312H45.7969C46.4583 6.20312 47.0651 6.34115 47.6172 6.61719C48.5651 7.10156 49.0391 7.82292 49.0391 8.78125V9.59375C49.0391 10.1875 48.7188 10.7708 48.0781 11.3438C49.1875 11.8281 49.7422 12.4948 49.7422 13.3438V15.4219C49.7422 16.3698 49.151 17.0911 47.9688 17.5859C47.3073 17.862 46.5833 18 45.7969 18H42.0078ZM52.8281 7.67969C52.6458 7.49219 52.5547 7.26823 52.5547 7.00781C52.5547 6.74219 52.6458 6.51562 52.8281 6.32812C53.0104 6.14062 53.2318 6.04688 53.4922 6.04688C53.7526 6.04688 53.974 6.14062 54.1562 6.32812C54.3385 6.51562 54.4297 6.74219 54.4297 7.00781C54.4297 7.26823 54.3385 7.49219 54.1562 7.67969C53.974 7.86719 53.7526 7.96094 53.4922 7.96094C53.2318 7.96094 53.0104 7.86719 52.8281 7.67969ZM52.7109 18.3125V9.79688L54.1953 9.09375H54.2734V17.6094L52.7891 18.3125H52.7109ZM57.3984 16.2422V6.59375L58.8828 5.89062H58.9609V9.51562C59.4609 9.33854 60.0208 9.25 60.6406 9.25C61.3021 9.25 61.8958 9.35156 62.4219 9.55469C63.3958 9.9401 63.8828 10.4766 63.8828 11.1641V16.2422C63.8828 16.9401 63.3958 17.4766 62.4219 17.8516C61.8958 18.0547 61.3021 18.1562 60.6406 18.1562C59.9792 18.1562 59.3854 18.0547 58.8594 17.8516C57.8854 17.4661 57.3984 16.9297 57.3984 16.2422ZM58.9609 11.4375V15.9688C58.9609 16.2292 59.1224 16.4245 59.4453 16.5547C59.7734 16.6849 60.1719 16.75 60.6406 16.75C61.1094 16.75 61.5052 16.6849 61.8281 16.5547C62.1562 16.4245 62.3203 16.2292 62.3203 15.9688V11.4375C62.3203 11.1771 62.1562 10.9818 61.8281 10.8516C61.5052 10.7214 61.1094 10.6562 60.6406 10.6562C60.1719 10.6562 59.7734 10.7214 59.4453 10.8516C59.1224 10.9818 58.9609 11.1771 58.9609 11.4375ZM66.6172 18.3125V6.59375L68.1016 5.89062H68.1797V17.6094L66.6953 18.3125H66.6172ZM71.4219 7.67969C71.2396 7.49219 71.1484 7.26823 71.1484 7.00781C71.1484 6.74219 71.2396 6.51562 71.4219 6.32812C71.6042 6.14062 71.8255 6.04688 72.0859 6.04688C72.3464 6.04688 72.5677 6.14062 72.75 6.32812C72.9323 6.51562 73.0234 6.74219 73.0234 7.00781C73.0234 7.26823 72.9323 7.49219 72.75 7.67969C72.5677 7.86719 72.3464 7.96094 72.0859 7.96094C71.8255 7.96094 71.6042 7.86719 71.4219 7.67969ZM71.3047 18.3125V9.79688L72.7891 9.09375H72.8672V17.6094L71.3828 18.3125H71.3047ZM77.1641 15.9688C77.1641 16.2292 77.3255 16.4245 77.6484 16.5547C77.9766 16.6849 78.375 16.75 78.8438 16.75C79.3125 16.75 79.7083 16.6849 80.0312 16.5547C80.3594 16.4245 80.5234 16.2292 80.5234 15.9688V11.4375C80.5234 11.1771 80.3594 10.9818 80.0312 10.8516C79.7083 10.7214 79.3125 10.6562 78.8438 10.6562C78.375 10.6562 77.9766 10.7214 77.6484 10.8516C77.3255 10.9818 77.1641 11.1771 77.1641 11.4375V15.9688ZM75.6016 16.2422V11.1641C75.6016 10.4766 76.0885 9.9401 77.0625 9.55469C77.5885 9.35156 78.1823 9.25 78.8438 9.25C79.5052 9.25 80.099 9.35156 80.625 9.55469C81.599 9.9401 82.0859 10.4766 82.0859 11.1641V16.2422C82.0859 16.9297 81.599 17.4661 80.625 17.8516C80.099 18.0547 79.5052 18.1562 78.8438 18.1562C78.1823 18.1562 77.5885 18.0547 77.0625 17.8516C76.0885 17.4661 75.6016 16.9297 75.6016 16.2422ZM85.4609 18.3125V10.8281H83.4531V10.75L84.0859 9.40625H85.4609V6.59375L86.9453 5.89062H87.0234V9.40625H89.0312V9.48438L88.3984 10.8281H87.0234V17.6094L85.5391 18.3125H85.4609ZM96.8828 14.5391V16.2422C96.8828 16.9297 96.3958 17.4661 95.4219 17.8516C94.8958 18.0547 94.3021 18.1562 93.6406 18.1562C92.9792 18.1562 92.3854 18.0547 91.8594 17.8516C90.8854 17.4661 90.3984 16.9297 90.3984 16.2422V11.1641C90.3984 10.4766 90.8854 9.9401 91.8594 9.55469C92.3854 9.35156 92.9792 9.25 93.6406 9.25C94.3021 9.25 94.8958 9.35156 95.4219 9.55469C96.3958 9.9401 96.8828 10.4766 96.8828 11.1641V12.1641L91.9609 15.9688C91.9609 16.2292 92.1224 16.4245 92.4453 16.5547C92.7734 16.6849 93.1719 16.75 93.6406 16.75C94.1094 16.75 94.5052 16.6849 94.8281 16.5547C95.1562 16.4245 95.3203 16.2292 95.3203 15.9688V15.2422L96.8047 14.5391H96.8828ZM91.9609 14.3203L95.3203 11.6172V11.4375C95.3203 11.1771 95.1562 10.9818 94.8281 10.8516C94.5052 10.7214 94.1094 10.6562 93.6406 10.6562C93.1719 10.6562 92.7734 10.7214 92.4453 10.8516C92.1224 10.9818 91.9609 11.1771 91.9609 11.4375V14.3203ZM105.711 14.5391V16.2422C105.711 16.9297 105.224 17.4661 104.25 17.8516C103.724 18.0547 103.13 18.1562 102.469 18.1562C101.807 18.1562 101.214 18.0547 100.688 17.8516C99.7135 17.4661 99.2266 16.9297 99.2266 16.2422V11.1641C99.2266 10.4766 99.7135 9.9401 100.688 9.55469C101.214 9.35156 101.807 9.25 102.469 9.25C103.13 9.25 103.724 9.35156 104.25 9.55469C105.224 9.9401 105.711 10.4766 105.711 11.1641V12.1641L104.227 12.8672H104.148V11.4375C104.148 11.1771 103.984 10.9818 103.656 10.8516C103.333 10.7214 102.938 10.6562 102.469 10.6562C102 10.6562 101.602 10.7214 101.273 10.8516C100.951 10.9818 100.789 11.1771 100.789 11.4375V15.9688C100.789 16.2292 100.951 16.4245 101.273 16.5547C101.602 16.6849 102 16.75 102.469 16.75C102.938 16.75 103.333 16.6849 103.656 16.5547C103.984 16.4245 104.148 16.2292 104.148 15.9688V15.2422L105.633 14.5391H105.711ZM113.992 17.6094L112.508 18.3125H112.43V17.8906C111.93 18.0677 111.396 18.1562 110.828 18.1562C110.219 18.1562 109.651 18.0547 109.125 17.8516C108.151 17.4661 107.664 16.9297 107.664 16.2422V14.1328C107.664 13.4349 108.151 12.8984 109.125 12.5234C109.651 12.3203 110.219 12.2188 110.828 12.2188C111.401 12.2188 111.935 12.3073 112.43 12.4844V11.4375C112.43 11.1771 112.266 10.9818 111.938 10.8516C111.615 10.7214 111.219 10.6562 110.75 10.6562H108.852V10.5781L109.477 9.25H110.75C111.411 9.25 112.005 9.35156 112.531 9.55469C113.505 9.92969 113.992 10.4661 113.992 11.1641V17.6094ZM109.227 15.9688C109.227 16.2292 109.388 16.4245 109.711 16.5547C110.039 16.6849 110.411 16.75 110.828 16.75C111.245 16.75 111.615 16.6849 111.938 16.5547C112.266 16.4245 112.43 16.2292 112.43 15.9688V14.4062C112.43 14.1458 112.266 13.9505 111.938 13.8203C111.615 13.6901 111.245 13.625 110.828 13.625C110.411 13.625 110.039 13.6901 109.711 13.8203C109.388 13.9505 109.227 14.1458 109.227 14.4062V15.9688ZM122.664 14.4062L124.148 13.7031H124.227V15.5781C124.227 15.9375 124.542 16.2422 125.172 16.4922C125.609 16.6641 126.089 16.75 126.609 16.75C127.13 16.75 127.609 16.6641 128.047 16.4922C128.677 16.2422 128.992 15.9375 128.992 15.5781V13.3047C128.992 12.9401 128.677 12.6354 128.047 12.3906C127.609 12.2188 127.13 12.1328 126.609 12.1328C125.948 12.1328 125.354 12.0312 124.828 11.8281C123.854 11.4427 123.367 10.9062 123.367 10.2188V7.96094C123.367 7.26302 123.854 6.72656 124.828 6.35156C125.354 6.14844 125.948 6.04688 126.609 6.04688C127.271 6.04688 127.865 6.14844 128.391 6.35156C129.365 6.73698 129.852 7.27344 129.852 7.96094V8.96094L128.367 9.66406H128.289V8.23438C128.289 7.97396 128.125 7.77865 127.797 7.64844C127.474 7.51823 127.078 7.45312 126.609 7.45312C126.141 7.45312 125.742 7.51823 125.414 7.64844C125.091 7.77865 124.93 7.97396 124.93 8.23438V9.94531C124.93 10.2057 125.091 10.401 125.414 10.5312C125.742 10.6615 126.141 10.7266 126.609 10.7266C127.396 10.7266 128.12 10.8646 128.781 11.1406C129.964 11.6302 130.555 12.3516 130.555 13.3047V15.5781C130.555 16.526 129.964 17.2474 128.781 17.7422C128.12 18.0182 127.396 18.1562 126.609 18.1562C125.823 18.1562 125.099 18.0182 124.438 17.7422C123.255 17.2526 122.664 16.5312 122.664 15.5781V14.4062ZM132.977 9.79688L134.461 9.09375H134.539V15.9688C134.539 16.2292 134.701 16.4245 135.023 16.5547C135.352 16.6849 135.75 16.75 136.219 16.75C136.688 16.75 137.083 16.6849 137.406 16.5547C137.734 16.4245 137.898 16.2292 137.898 15.9688V9.79688L139.383 9.09375H139.461V19.4453C139.461 20.1432 138.974 20.6797 138 21.0547C137.474 21.2578 136.88 21.3594 136.219 21.3594H133.789V21.2812L134.414 19.9531H136.219C136.688 19.9531 137.083 19.888 137.406 19.7578C137.734 19.6276 137.898 19.4323 137.898 19.1719V17.8906C137.398 18.0677 136.839 18.1562 136.219 18.1562C135.557 18.1562 134.964 18.0547 134.438 17.8516C133.464 17.4766 132.977 16.9401 132.977 16.2422V9.79688ZM142.195 18.3125V11.1641C142.195 10.4661 142.682 9.92969 143.656 9.55469C144.182 9.35156 144.776 9.25 145.438 9.25C146.099 9.25 146.693 9.35156 147.219 9.55469C148.193 9.92969 148.68 10.4661 148.68 11.1641V17.6094L147.195 18.3125H147.117V11.4375C147.117 11.1771 146.953 10.9818 146.625 10.8516C146.302 10.7214 145.906 10.6562 145.438 10.6562C144.969 10.6562 144.57 10.7214 144.242 10.8516C143.919 10.9818 143.758 11.1771 143.758 11.4375V17.6094L142.273 18.3125H142.195ZM157.508 14.5391V16.2422C157.508 16.9297 157.021 17.4661 156.047 17.8516C155.521 18.0547 154.927 18.1562 154.266 18.1562C153.604 18.1562 153.01 18.0547 152.484 17.8516C151.51 17.4661 151.023 16.9297 151.023 16.2422V11.1641C151.023 10.4766 151.51 9.9401 152.484 9.55469C153.01 9.35156 153.604 9.25 154.266 9.25C154.927 9.25 155.521 9.35156 156.047 9.55469C157.021 9.9401 157.508 10.4766 157.508 11.1641V12.1641L156.023 12.8672H155.945V11.4375C155.945 11.1771 155.781 10.9818 155.453 10.8516C155.13 10.7214 154.734 10.6562 154.266 10.6562C153.797 10.6562 153.398 10.7214 153.07 10.8516C152.747 10.9818 152.586 11.1771 152.586 11.4375V15.9688C152.586 16.2292 152.747 16.4245 153.07 16.5547C153.398 16.6849 153.797 16.75 154.266 16.75C154.734 16.75 155.13 16.6849 155.453 16.5547C155.781 16.4245 155.945 16.2292 155.945 15.9688V15.2422L157.43 14.5391H157.508ZM161.414 15.9688C161.414 16.2292 161.576 16.4245 161.898 16.5547C162.227 16.6849 162.625 16.75 163.094 16.75C163.562 16.75 163.958 16.6849 164.281 16.5547C164.609 16.4245 164.773 16.2292 164.773 15.9688V11.4375C164.773 11.1771 164.609 10.9818 164.281 10.8516C163.958 10.7214 163.562 10.6562 163.094 10.6562C162.625 10.6562 162.227 10.7214 161.898 10.8516C161.576 10.9818 161.414 11.1771 161.414 11.4375V15.9688ZM159.852 16.2422V11.1641C159.852 10.4766 160.339 9.9401 161.312 9.55469C161.839 9.35156 162.432 9.25 163.094 9.25C163.755 9.25 164.349 9.35156 164.875 9.55469C165.849 9.9401 166.336 10.4766 166.336 11.1641V16.2422C166.336 16.9297 165.849 17.4661 164.875 17.8516C164.349 18.0547 163.755 18.1562 163.094 18.1562C162.432 18.1562 161.839 18.0547 161.312 17.8516C160.339 17.4661 159.852 16.9297 159.852 16.2422ZM168.68 16.2422C168.68 16.2422 168.68 14.5495 168.68 11.1641C168.68 10.4661 169.167 9.92969 170.141 9.55469C170.667 9.35156 171.26 9.25 171.922 9.25C172.542 9.25 173.102 9.33854 173.602 9.51562V6.59375L175.086 5.89062H175.164V16.2422C175.164 16.9401 174.677 17.4766 173.703 17.8516C173.177 18.0547 172.583 18.1562 171.922 18.1562C171.26 18.1562 170.667 18.0547 170.141 17.8516C169.167 17.4661 168.68 16.9297 168.68 16.2422ZM170.242 15.9688C170.242 16.2292 170.404 16.4245 170.727 16.5547C171.055 16.6849 171.453 16.75 171.922 16.75C172.391 16.75 172.786 16.6849 173.109 16.5547C173.438 16.4245 173.602 16.2292 173.602 15.9688V11.4375C173.602 11.1771 173.438 10.9818 173.109 10.8516C172.786 10.7214 172.391 10.6562 171.922 10.6562C171.453 10.6562 171.055 10.7214 170.727 10.8516C170.404 10.9818 170.242 11.1771 170.242 11.4375V15.9688ZM184.383 14.5391V16.2422C184.383 16.9297 183.896 17.4661 182.922 17.8516C182.396 18.0547 181.802 18.1562 181.141 18.1562C180.479 18.1562 179.885 18.0547 179.359 17.8516C178.385 17.4661 177.898 16.9297 177.898 16.2422V11.1641C177.898 10.4766 178.385 9.9401 179.359 9.55469C179.885 9.35156 180.479 9.25 181.141 9.25C181.802 9.25 182.396 9.35156 182.922 9.55469C183.896 9.9401 184.383 10.4766 184.383 11.1641V12.1641L179.461 15.9688C179.461 16.2292 179.622 16.4245 179.945 16.5547C180.273 16.6849 180.672 16.75 181.141 16.75C181.609 16.75 182.005 16.6849 182.328 16.5547C182.656 16.4245 182.82 16.2292 182.82 15.9688V15.2422L184.305 14.5391H184.383ZM179.461 14.3203L182.82 11.6172V11.4375C182.82 11.1771 182.656 10.9818 182.328 10.8516C182.005 10.7214 181.609 10.6562 181.141 10.6562C180.672 10.6562 180.273 10.7214 179.945 10.8516C179.622 10.9818 179.461 11.1771 179.461 11.4375V14.3203Z" fill="#2D5DB9"/>
</svg>
