<svg width="15" height="15" viewBox="0 0 15 15" fill="none" xmlns="http://www.w3.org/2000/svg">
<path fill-rule="evenodd" clip-rule="evenodd" d="M2.39252 6.92579C2.39252 4.69322 4.20237 2.88336 6.43495 2.88336C8.66752 2.88336 10.4774 4.69322 10.4774 6.92579C10.4774 8.01384 10.0475 9.00149 9.34836 9.72817C9.3279 9.74407 9.3082 9.76142 9.28941 9.78021C9.27061 9.79901 9.25326 9.81871 9.23736 9.83917C8.51067 10.5383 7.52301 10.9682 6.43495 10.9682C4.20237 10.9682 2.39252 9.15837 2.39252 6.92579ZM9.70883 11.0824C8.80816 11.7928 7.67106 12.2167 6.43495 12.2167C3.51286 12.2167 1.14404 9.84788 1.14404 6.92579C1.14404 4.00371 3.51286 1.63489 6.43495 1.63489C9.35703 1.63489 11.7259 4.00371 11.7259 6.92579C11.7259 8.16189 11.302 9.29897 10.5916 10.1996L12.7097 12.3177C12.9535 12.5615 12.9535 12.9567 12.7097 13.2005C12.4659 13.4443 12.0707 13.4443 11.8269 13.2005L9.70883 11.0824Z" fill="#9D9D9D"/>
</svg>
