<svg width="107" height="25" viewBox="0 0 107 25" fill="none" xmlns="http://www.w3.org/2000/svg">
<path d="M0 12.5C0 5.59644 5.59644 0 12.5 0H94.5C101.404 0 107 5.59644 107 12.5C107 19.4036 101.404 25 94.5 25H12.5C5.59644 25 0 19.4036 0 12.5Z" fill="#04A26C" fill-opacity="0.1"/>
<circle cx="12" cy="12.5" r="8" fill="#04A26C"/>
<path d="M26.806 17C26.6287 17 26.484 16.9487 26.372 16.846C26.2693 16.7433 26.218 16.608 26.218 16.44V7.69C26.218 7.522 26.2693 7.38667 26.372 7.284C26.484 7.18133 26.6287 7.13 26.806 7.13H29.536C31.1133 7.13 32.3313 7.55933 33.19 8.418C34.058 9.26733 34.492 10.4807 34.492 12.058C34.492 13.6353 34.058 14.8533 33.19 15.712C32.322 16.5707 31.104 17 29.536 17H26.806ZM29.466 16.02C32.0233 16.02 33.302 14.6993 33.302 12.058C33.302 9.426 32.0233 8.11 29.466 8.11H27.366V16.02H29.466ZM36.9736 17.07C36.8056 17.07 36.6656 17.0233 36.5536 16.93C36.4509 16.8273 36.3996 16.6873 36.3996 16.51V10.602C36.3996 10.4247 36.4509 10.2893 36.5536 10.196C36.6656 10.0933 36.8056 10.042 36.9736 10.042C37.1416 10.042 37.2769 10.0933 37.3796 10.196C37.4823 10.2893 37.5336 10.4247 37.5336 10.602V16.51C37.5336 16.6967 37.4823 16.8367 37.3796 16.93C37.2769 17.0233 37.1416 17.07 36.9736 17.07ZM36.9736 8.572C36.7496 8.572 36.5676 8.50667 36.4276 8.376C36.2876 8.24533 36.2176 8.07267 36.2176 7.858C36.2176 7.65267 36.2876 7.48467 36.4276 7.354C36.5676 7.22333 36.7496 7.158 36.9736 7.158C37.1976 7.158 37.3796 7.22333 37.5196 7.354C37.6596 7.48467 37.7296 7.65267 37.7296 7.858C37.7296 8.07267 37.6596 8.24533 37.5196 8.376C37.3796 8.50667 37.1976 8.572 36.9736 8.572ZM41.9495 17.098C41.5202 17.098 41.1095 17.0467 40.7175 16.944C40.3348 16.8413 39.9942 16.6967 39.6955 16.51C39.5275 16.398 39.4062 16.2953 39.3315 16.202C39.2662 16.0993 39.2335 15.978 39.2335 15.838C39.2335 15.7167 39.2662 15.6187 39.3315 15.544C39.4062 15.46 39.4995 15.418 39.6115 15.418C39.7235 15.418 39.8868 15.488 40.1015 15.628C40.3815 15.796 40.6568 15.9313 40.9275 16.034C41.2075 16.1273 41.5528 16.174 41.9635 16.174C42.4675 16.174 42.8595 16.0853 43.1395 15.908C43.4195 15.7307 43.5595 15.474 43.5595 15.138C43.5595 14.9327 43.5082 14.7693 43.4055 14.648C43.3028 14.5173 43.1255 14.4053 42.8735 14.312C42.6215 14.2093 42.2528 14.1067 41.7675 14.004C40.9462 13.8267 40.3582 13.5887 40.0035 13.29C39.6488 12.9913 39.4715 12.5853 39.4715 12.072C39.4715 11.6707 39.5835 11.316 39.8075 11.008C40.0315 10.7 40.3395 10.4573 40.7315 10.28C41.1328 10.1027 41.5855 10.014 42.0895 10.014C42.4535 10.014 42.8035 10.0653 43.1395 10.168C43.4848 10.2613 43.7882 10.3967 44.0495 10.574C44.3668 10.798 44.5255 11.0313 44.5255 11.274C44.5255 11.3953 44.4882 11.498 44.4135 11.582C44.3388 11.666 44.2502 11.708 44.1475 11.708C44.0355 11.708 43.8675 11.6287 43.6435 11.47C43.3822 11.302 43.1348 11.1713 42.9015 11.078C42.6682 10.9847 42.3788 10.938 42.0335 10.938C41.5948 10.938 41.2402 11.036 40.9695 11.232C40.7082 11.428 40.5775 11.6893 40.5775 12.016C40.5775 12.2213 40.6242 12.3893 40.7175 12.52C40.8202 12.6413 40.9835 12.7533 41.2075 12.856C41.4408 12.9493 41.7722 13.0427 42.2015 13.136C42.8362 13.276 43.3262 13.43 43.6715 13.598C44.0262 13.766 44.2782 13.9713 44.4275 14.214C44.5768 14.4567 44.6515 14.7647 44.6515 15.138C44.6515 15.726 44.4042 16.202 43.9095 16.566C43.4148 16.9207 42.7615 17.098 41.9495 17.098ZM49.8101 10.014C50.4074 10.014 50.9347 10.1633 51.3921 10.462C51.8494 10.7607 52.2041 11.1807 52.4561 11.722C52.7081 12.254 52.8341 12.8747 52.8341 13.584C52.8341 14.2933 52.7081 14.914 52.4561 15.446C52.2041 15.9687 51.8494 16.3747 51.3921 16.664C50.9441 16.9533 50.4167 17.098 49.8101 17.098C49.2781 17.098 48.8114 16.9813 48.4101 16.748C48.0181 16.5147 47.7194 16.1833 47.5141 15.754V19.044C47.5141 19.212 47.4627 19.3427 47.3601 19.436C47.2667 19.5387 47.1314 19.59 46.9541 19.59C46.7767 19.59 46.6367 19.5387 46.5341 19.436C46.4314 19.3333 46.3801 19.2027 46.3801 19.044V10.602C46.3801 10.434 46.4314 10.2987 46.5341 10.196C46.6367 10.0933 46.7767 10.042 46.9541 10.042C47.1314 10.042 47.2667 10.0933 47.3601 10.196C47.4627 10.2987 47.5141 10.434 47.5141 10.602V11.358C47.7194 10.9287 48.0181 10.5973 48.4101 10.364C48.8114 10.1307 49.2781 10.014 49.8101 10.014ZM49.5861 16.16C50.2487 16.16 50.7621 15.936 51.1261 15.488C51.4901 15.04 51.6721 14.4053 51.6721 13.584C51.6721 12.7627 51.4901 12.1233 51.1261 11.666C50.7621 11.1993 50.2487 10.966 49.5861 10.966C48.9234 10.966 48.4101 11.19 48.0461 11.638C47.6914 12.086 47.5141 12.7253 47.5141 13.556C47.5141 14.3867 47.6914 15.0307 48.0461 15.488C48.4101 15.936 48.9234 16.16 49.5861 16.16ZM57.3565 17.098C56.7125 17.098 56.1432 16.9533 55.6485 16.664C55.1632 16.3747 54.7852 15.964 54.5145 15.432C54.2532 14.8907 54.1225 14.2653 54.1225 13.556C54.1225 12.8467 54.2532 12.226 54.5145 11.694C54.7852 11.1527 55.1632 10.7373 55.6485 10.448C56.1432 10.1587 56.7125 10.014 57.3565 10.014C58.0005 10.014 58.5698 10.1587 59.0645 10.448C59.5592 10.7373 59.9372 11.1527 60.1985 11.694C60.4692 12.226 60.6045 12.8467 60.6045 13.556C60.6045 14.2653 60.4692 14.8907 60.1985 15.432C59.9372 15.964 59.5592 16.3747 59.0645 16.664C58.5698 16.9533 58.0005 17.098 57.3565 17.098ZM57.3565 16.16C58.0285 16.16 58.5418 15.9407 58.8965 15.502C59.2605 15.054 59.4425 14.4053 59.4425 13.556C59.4425 12.7253 59.2605 12.086 58.8965 11.638C58.5325 11.1807 58.0192 10.952 57.3565 10.952C56.6938 10.952 56.1805 11.1807 55.8165 11.638C55.4525 12.086 55.2705 12.7253 55.2705 13.556C55.2705 14.396 55.4478 15.04 55.8025 15.488C56.1665 15.936 56.6845 16.16 57.3565 16.16ZM65.7241 10.014C67.3575 10.014 68.1741 10.9147 68.1741 12.716V16.51C68.1741 16.6873 68.1228 16.8273 68.0201 16.93C67.9268 17.0233 67.7915 17.07 67.6141 17.07C67.4368 17.07 67.2968 17.0233 67.1941 16.93C67.0915 16.8273 67.0401 16.6873 67.0401 16.51V12.786C67.0401 12.1513 66.9141 11.6893 66.6621 11.4C66.4195 11.1107 66.0275 10.966 65.4861 10.966C64.8608 10.966 64.3615 11.1573 63.9881 11.54C63.6148 11.9227 63.4281 12.4407 63.4281 13.094V16.51C63.4281 16.6873 63.3768 16.8273 63.2741 16.93C63.1808 17.0233 63.0455 17.07 62.8681 17.07C62.6908 17.07 62.5508 17.0233 62.4481 16.93C62.3455 16.8273 62.2941 16.6873 62.2941 16.51V10.602C62.2941 10.434 62.3455 10.2987 62.4481 10.196C62.5508 10.0933 62.6908 10.042 62.8681 10.042C63.0361 10.042 63.1668 10.0933 63.2601 10.196C63.3628 10.2987 63.4141 10.4293 63.4141 10.588V11.302C63.6381 10.882 63.9508 10.5647 64.3521 10.35C64.7535 10.126 65.2108 10.014 65.7241 10.014ZM70.8252 17.07C70.6572 17.07 70.5172 17.0233 70.4052 16.93C70.3025 16.8273 70.2512 16.6873 70.2512 16.51V10.602C70.2512 10.4247 70.3025 10.2893 70.4052 10.196C70.5172 10.0933 70.6572 10.042 70.8252 10.042C70.9932 10.042 71.1285 10.0933 71.2312 10.196C71.3338 10.2893 71.3852 10.4247 71.3852 10.602V16.51C71.3852 16.6967 71.3338 16.8367 71.2312 16.93C71.1285 17.0233 70.9932 17.07 70.8252 17.07ZM71.0772 9.272C71.0025 9.328 70.9278 9.356 70.8532 9.356C70.7598 9.356 70.6805 9.328 70.6152 9.272C70.5498 9.20667 70.5172 9.132 70.5172 9.048C70.5172 8.97333 70.5452 8.90333 70.6012 8.838L72.2252 6.71C72.3932 6.49533 72.5845 6.388 72.7992 6.388C72.9485 6.388 73.0745 6.43933 73.1772 6.542C73.2798 6.63533 73.3312 6.75667 73.3312 6.906C73.3312 7.102 73.2378 7.27933 73.0512 7.438L71.0772 9.272ZM78.4191 10.392C78.5217 10.168 78.6851 10.056 78.9091 10.056C79.0491 10.056 79.1751 10.1027 79.2871 10.196C79.3991 10.2893 79.4551 10.406 79.4551 10.546C79.4551 10.63 79.4364 10.7047 79.3991 10.77L76.6691 16.65C76.6131 16.7713 76.5291 16.8693 76.4171 16.944C76.3051 17.0093 76.1837 17.042 76.0531 17.042C75.9317 17.042 75.8151 17.0093 75.7031 16.944C75.5911 16.8693 75.5024 16.7713 75.4371 16.65L72.7211 10.77C72.6837 10.7047 72.6651 10.6347 72.6651 10.56C72.6651 10.42 72.7257 10.2987 72.8471 10.196C72.9777 10.0933 73.1177 10.042 73.2671 10.042C73.3604 10.042 73.4491 10.07 73.5331 10.126C73.6264 10.182 73.6964 10.2613 73.7431 10.364L76.0811 15.614L78.4191 10.392ZM85.8925 15.418C85.9951 15.418 86.0838 15.46 86.1585 15.544C86.2331 15.628 86.2705 15.7353 86.2705 15.866C86.2705 16.0993 86.1071 16.314 85.7805 16.51C85.4445 16.706 85.0898 16.8553 84.7165 16.958C84.3431 17.0513 83.9791 17.098 83.6245 17.098C82.5698 17.098 81.7345 16.7853 81.1185 16.16C80.5118 15.5347 80.2085 14.6713 80.2085 13.57C80.2085 12.87 80.3438 12.254 80.6145 11.722C80.8851 11.1807 81.2631 10.7607 81.7485 10.462C82.2431 10.1633 82.8031 10.014 83.4285 10.014C84.3151 10.014 85.0198 10.3033 85.5425 10.882C86.0651 11.4607 86.3265 12.2447 86.3265 13.234C86.3265 13.4207 86.2891 13.556 86.2145 13.64C86.1398 13.724 86.0185 13.766 85.8505 13.766H81.3425C81.4265 15.3713 82.1871 16.174 83.6245 16.174C83.9885 16.174 84.3011 16.1273 84.5625 16.034C84.8238 15.9313 85.1038 15.796 85.4025 15.628C85.6451 15.488 85.8085 15.418 85.8925 15.418ZM83.4425 10.896C82.8451 10.896 82.3645 11.0827 82.0005 11.456C81.6458 11.8293 81.4358 12.3567 81.3705 13.038H85.3325C85.3138 12.3473 85.1411 11.82 84.8145 11.456C84.4878 11.0827 84.0305 10.896 83.4425 10.896ZM88.5713 17.07C88.4033 17.07 88.2633 17.0233 88.1513 16.93C88.0486 16.8273 87.9973 16.6873 87.9973 16.51V7.62C87.9973 7.44267 88.0486 7.30733 88.1513 7.214C88.2633 7.11133 88.4033 7.06 88.5713 7.06C88.7299 7.06 88.8606 7.11133 88.9633 7.214C89.0753 7.30733 89.1313 7.44267 89.1313 7.62V16.51C89.1313 16.6873 89.0753 16.8273 88.9633 16.93C88.8606 17.0233 88.7299 17.07 88.5713 17.07Z" fill="#04A26C"/>
</svg>
